<svg width="128" height="79" viewBox="0 0 128 79" fill="none" xmlns="http://www.w3.org/2000/svg">
<path d="M64.7071 18.2929C64.3166 17.9024 63.6834 17.9024 63.2929 18.2929L56.9289 24.6569C56.5384 25.0474 56.5384 25.6805 56.9289 26.0711C57.3195 26.4616 57.9526 26.4616 58.3431 26.0711L64 20.4142L69.6569 26.0711C70.0474 26.4616 70.6805 26.4616 71.0711 26.0711C71.4616 25.6805 71.4616 25.0474 71.0711 24.6569L64.7071 18.2929ZM65 50V19H63V50H65Z" fill="white"/>
<circle cx="64" cy="25" r="24" stroke="white" stroke-width="2"/>
<path d="M19.0325 77V64.994H22.2725C23.4365 64.994 24.3005 65.27 24.8645 65.822C25.4405 66.374 25.7285 67.118 25.7285 68.054C25.7285 68.822 25.5185 69.416 25.0985 69.836C24.6905 70.244 24.1625 70.508 23.5145 70.628C24.3785 70.736 25.0625 71.06 25.5665 71.6C26.0705 72.128 26.3225 72.812 26.3225 73.652C26.3345 74.504 26.1245 75.212 25.6925 75.776C25.2605 76.316 24.7865 76.658 24.2705 76.802C23.7425 76.946 23.3165 77.012 22.9925 77H19.0325ZM20.4005 75.758H22.9385C23.5145 75.758 23.9765 75.584 24.3245 75.236C24.6845 74.876 24.8645 74.336 24.8645 73.616C24.8645 72.092 23.9825 71.33 22.2185 71.33H20.4005V75.758ZM20.4005 70.088H22.1645C22.8485 70.088 23.3765 69.896 23.7485 69.512C24.1205 69.128 24.3065 68.624 24.3065 68C24.3065 66.824 23.6465 66.236 22.3265 66.236H20.4005V70.088ZM26.8223 77L31.0883 64.994H32.2043L36.5423 77H35.0483L33.6983 73.292H29.5223L28.2623 77H26.8223ZM29.9723 72.014H33.2483L31.5923 67.046L29.9723 72.014ZM41.6839 77.234C41.0119 77.234 40.3879 77.12 39.8119 76.892C39.2359 76.652 38.7319 76.286 38.2999 75.794C37.8799 75.29 37.5439 74.648 37.2919 73.868C37.0519 73.088 36.9319 72.146 36.9319 71.042C36.9319 69.494 37.2019 68.216 37.7419 67.208C38.2699 66.2 38.8999 65.54 39.6319 65.228C40.3999 64.916 41.0599 64.76 41.6119 64.76C42.4399 64.76 43.1479 64.934 43.7359 65.282C44.3239 65.63 44.8399 66.182 45.2839 66.938L44.2759 67.766C43.9639 67.334 43.6939 67.01 43.4659 66.794C43.2379 66.578 42.9499 66.404 42.6019 66.272C42.2539 66.14 41.9119 66.074 41.5759 66.074C40.5559 66.074 39.7639 66.5 39.1999 67.352C38.6479 68.204 38.3719 69.44 38.3719 71.06C38.3719 71.84 38.4559 72.536 38.6239 73.148C38.8039 73.748 39.0379 74.258 39.3259 74.678C39.6259 75.086 39.9799 75.398 40.3879 75.614C40.7959 75.818 41.2339 75.92 41.7019 75.92C42.3979 75.92 42.9619 75.812 43.3939 75.596C43.8259 75.38 44.2399 75.08 44.6359 74.696L45.1399 75.992C44.9599 76.172 44.7379 76.34 44.4739 76.496C44.2099 76.652 43.9219 76.784 43.6099 76.892C43.3099 77 42.9919 77.084 42.6559 77.144C42.3319 77.204 42.0079 77.234 41.6839 77.234ZM53.6542 77L52.1242 73.274C51.8122 72.59 51.5962 72.158 51.4762 71.978C51.3442 71.786 51.1702 71.642 50.9542 71.546C50.7382 71.45 50.5042 71.402 50.2522 71.402H48.5782V76.982H47.2102V64.994H48.5782V70.232H50.0362C50.2162 70.232 50.3782 70.214 50.5222 70.178C50.6662 70.142 50.7982 70.076 50.9182 69.98C51.0502 69.884 51.1702 69.752 51.2782 69.584C51.3982 69.404 51.5242 69.176 51.6562 68.9L53.3662 64.994H54.8422L53.0242 69.062C52.8322 69.482 52.6342 69.818 52.4302 70.07C52.2262 70.31 52.0042 70.478 51.7642 70.574C52.1122 70.67 52.3822 70.832 52.5742 71.06C52.7782 71.288 52.9642 71.612 53.1322 72.032L55.1122 77H53.6542ZM62.6802 77V66.236H59.1522V64.994H67.5762V66.236H64.0302V77H62.6802ZM72.7458 77.234C71.9058 77.234 71.1798 77.054 70.5678 76.694C69.9678 76.334 69.4698 75.866 69.0738 75.29C68.6898 74.702 68.4018 74.036 68.2098 73.292C68.0298 72.536 67.9398 71.768 67.9398 70.988C67.9398 69.74 68.1558 68.612 68.5878 67.604C69.0198 66.596 69.6078 65.87 70.3518 65.426C71.0958 64.982 71.8938 64.76 72.7458 64.76C73.9338 64.76 74.9058 65.12 75.6618 65.84C76.4178 66.56 76.9218 67.406 77.1738 68.378C77.4258 69.338 77.5518 70.208 77.5518 70.988C77.5518 71.768 77.4558 72.536 77.2637 73.292C77.0838 74.036 76.7958 74.702 76.3998 75.29C76.0158 75.866 75.5178 76.334 74.9058 76.694C74.3058 77.054 73.5858 77.234 72.7458 77.234ZM72.7458 75.956C73.5618 75.956 74.2458 75.662 74.7978 75.074C75.3498 74.486 75.7098 73.814 75.8778 73.058C76.0458 72.254 76.1298 71.564 76.1298 70.988C76.1298 69.968 75.9798 69.086 75.6798 68.342C75.3798 67.55 74.9598 66.968 74.4198 66.596C73.8918 66.224 73.3338 66.038 72.7458 66.038C71.9058 66.038 71.2098 66.332 70.6578 66.92C70.1298 67.508 69.7818 68.18 69.6138 68.936C69.4458 69.74 69.3618 70.424 69.3618 70.988C69.3618 71.612 69.4278 72.224 69.5598 72.824C69.7038 73.412 69.9138 73.94 70.1898 74.408C70.4658 74.876 70.8138 75.254 71.2338 75.542C71.6658 75.818 72.1698 75.956 72.7458 75.956ZM85.5142 77V66.236H81.9862V64.994H90.4102V66.236H86.8642V77H85.5142ZM95.5797 77.234C94.7397 77.234 94.0137 77.054 93.4017 76.694C92.8017 76.334 92.3037 75.866 91.9077 75.29C91.5237 74.702 91.2357 74.036 91.0437 73.292C90.8637 72.536 90.7737 71.768 90.7737 70.988C90.7737 69.74 90.9897 68.612 91.4217 67.604C91.8537 66.596 92.4417 65.87 93.1857 65.426C93.9297 64.982 94.7277 64.76 95.5797 64.76C96.7677 64.76 97.7397 65.12 98.4957 65.84C99.2517 66.56 99.7557 67.406 100.008 68.378C100.26 69.338 100.386 70.208 100.386 70.988C100.386 71.768 100.29 72.536 100.098 73.292C99.9177 74.036 99.6297 74.702 99.2337 75.29C98.8497 75.866 98.3517 76.334 97.7397 76.694C97.1397 77.054 96.4197 77.234 95.5797 77.234ZM95.5797 75.956C96.3957 75.956 97.0797 75.662 97.6317 75.074C98.1837 74.486 98.5437 73.814 98.7117 73.058C98.8797 72.254 98.9637 71.564 98.9637 70.988C98.9637 69.968 98.8137 69.086 98.5137 68.342C98.2137 67.55 97.7937 66.968 97.2537 66.596C96.7257 66.224 96.1677 66.038 95.5797 66.038C94.7397 66.038 94.0437 66.332 93.4917 66.92C92.9637 67.508 92.6157 68.18 92.4477 68.936C92.2797 69.74 92.1957 70.424 92.1957 70.988C92.1957 71.612 92.2617 72.224 92.3937 72.824C92.5377 73.412 92.7477 73.94 93.0237 74.408C93.2997 74.876 93.6477 75.254 94.0677 75.542C94.4997 75.818 95.0037 75.956 95.5797 75.956ZM102.616 77V64.994H106.18C107.488 64.994 108.454 65.3 109.078 65.912C109.714 66.524 110.032 67.43 110.032 68.63C110.032 69.794 109.696 70.676 109.024 71.276C108.364 71.876 107.398 72.176 106.126 72.176H103.984V77H102.616ZM103.984 70.916H106.216C106.912 70.916 107.476 70.736 107.908 70.376C108.352 70.016 108.574 69.422 108.574 68.594C108.574 67.766 108.364 67.166 107.944 66.794C107.536 66.422 106.954 66.236 106.198 66.236H103.984V70.916Z" fill="white"/>
</svg>
