<svg width="290" height="276" viewBox="0 0 290 276" fill="none" xmlns="http://www.w3.org/2000/svg">
<g clip-path="url(#clip0_1_172)">
<path d="M83.9537 263.076C50.5452 247.532 25.183 219.902 12.5546 185.286C-0.0790424 150.665 1.52389 113.202 17.0681 79.793C28.1938 55.8861 45.7733 35.7967 67.9138 21.6919C88.6993 8.44663 112.569 1.00669 137.114 0.0944947C138.591 0.0417666 139.83 1.20706 139.856 2.68345L140.041 13.2291C140.067 14.658 138.949 15.8497 137.52 15.9077C115.844 16.746 94.7683 23.3318 76.4083 35.0269C56.8146 47.5076 41.2545 65.2928 31.4049 86.4579C17.6429 116.038 16.2192 149.21 27.4028 179.855C38.5865 210.506 61.0381 234.961 90.6186 248.729C92.1951 249.462 93.7981 250.168 95.4063 250.832C96.7298 251.381 97.3678 252.889 96.8458 254.223L93.0072 264.046C92.4693 265.428 90.9033 266.087 89.5324 265.523C87.6553 264.747 85.7834 263.925 83.9432 263.071L83.9537 263.076Z" fill="#BCBEC0"/>
<path d="M93.0124 264.052L96.851 254.229C97.373 252.895 98.8653 252.22 100.21 252.715C128.451 263.082 159.318 262.644 187.427 251.434C216.454 239.855 239.707 217.867 252.9 189.521C266.662 159.94 268.086 126.769 256.902 96.1233C245.718 65.4725 223.267 41.0172 193.686 27.2499C177.488 19.715 160.341 15.8712 142.666 15.8184C141.238 15.8184 140.072 14.6637 140.046 13.2295L139.861 2.68386C139.83 1.20747 141.032 0 142.508 0C162.55 0.0316369 182.002 4.37116 200.351 12.9078C233.76 28.4521 259.122 56.0816 271.75 90.6976C284.384 125.314 282.776 162.782 267.231 196.191C252.33 228.213 226.067 253.047 193.28 266.124C161.475 278.81 126.526 279.274 94.5626 267.49C93.1759 266.978 92.4693 265.428 93.0072 264.052H93.0124Z" fill="#ED1C24"/>
<path d="M56.7829 195.1C55.6334 195.864 54.0779 195.537 53.3397 194.372C44.9981 181.2 39.6093 166.168 37.7164 150.724C35.6547 133.903 37.7639 116.587 43.817 100.648C51.5522 80.2841 65.1403 63.0894 83.1206 50.9198C99.9936 39.5042 119.524 33.2612 139.761 32.8024C141.143 32.7708 142.287 33.8781 142.282 35.2648L142.271 45.0933C142.271 46.4221 141.211 47.5083 139.882 47.5399C122.556 47.9723 105.836 53.34 91.3778 63.1211C75.9232 73.5823 64.2386 88.362 57.5896 105.878C47.508 132.427 50.5451 162.308 65.6676 186.299C66.3741 187.422 66.0578 188.904 64.9505 189.642L56.7776 195.1H56.7829Z" fill="#BCBEC0"/>
<path d="M104.808 236.333C85.0135 228.814 68.2354 215.78 56.1343 198.559C55.3381 197.43 55.6334 195.864 56.7776 195.1L64.9504 189.642C66.0577 188.904 67.5499 189.184 68.3145 190.27C91.267 222.777 133.692 237.836 180.341 223.315C180.546 223.251 180.747 223.156 180.931 223.046C260.166 173.808 240.567 78.6128 174.272 53.4351C164.712 49.8022 154.757 47.8249 144.649 47.5507C143.32 47.5138 142.271 46.4223 142.271 45.0988L142.281 35.2703C142.281 33.8888 143.426 32.7815 144.807 32.8132C156.65 33.1084 168.313 35.4127 179.502 39.6625C205.771 49.6387 226.578 69.2483 238.099 94.8741C249.62 120.5 250.469 149.084 240.493 175.348C230.517 201.617 210.907 222.423 185.281 233.945C159.655 245.466 131.071 246.315 104.808 236.338V236.333Z" fill="#ED1C24"/>
<path d="M113.682 204.131C113.176 205.307 111.794 205.835 110.634 205.297C93.4395 197.261 80.1626 183.198 73.1076 165.482C57.9535 127.412 76.5929 84.1117 114.663 68.9524C123.252 65.5356 132.221 63.7587 141.359 63.669C142.64 63.6585 143.674 64.713 143.647 65.9891L143.452 75.0741C143.426 76.2974 142.434 77.2729 141.211 77.294C133.85 77.4047 126.627 78.8494 119.698 81.6071C88.6044 93.9824 73.3818 129.347 85.757 160.441C91.4833 174.82 102.224 186.251 116.144 192.832C117.252 193.354 117.752 194.656 117.267 195.779L113.677 204.126L113.682 204.131Z" fill="#BCBEC0"/>
<path d="M169.642 207.036C151.926 214.091 132.59 214.107 114.931 207.142C113.74 206.673 113.176 205.307 113.682 204.131L117.273 195.784C117.758 194.661 119.044 194.129 120.188 194.571C134.536 200.155 150.222 200.108 164.601 194.382C195.695 182.006 210.918 146.642 198.542 115.548C189.774 93.518 169.152 78.7278 145.614 77.3832C144.391 77.3147 143.436 76.297 143.463 75.0685L143.658 65.9887C143.684 64.7074 144.77 63.7003 146.046 63.7636C175.01 65.2821 200.414 83.4206 211.192 110.507C226.346 148.577 207.707 191.877 169.637 207.036H169.642Z" fill="#ED1C24"/>
<path d="M6.80189 84.955C6.69643 85.245 6.55407 85.5244 6.36425 85.7828C6.18497 86.0306 6.02151 86.2046 5.89497 86.3048C5.76842 86.405 5.67351 86.463 5.61551 86.4841C5.40987 86.2837 5.30441 86.1836 5.10404 85.9885C5.30441 85.8725 5.51005 85.709 5.71569 85.5034C5.92133 85.2924 6.07951 85.0288 6.19552 84.7283C6.29043 84.4857 6.32734 84.259 6.30097 84.0586C6.27461 83.8582 6.21661 83.6842 6.11642 83.5366C6.02151 83.3837 5.90024 83.2624 5.76315 83.1675C5.62605 83.0726 5.48369 83.004 5.35714 82.9619C4.93531 82.8142 4.53985 82.8037 4.18658 82.983C3.83857 83.157 3.55911 83.5208 3.36402 84.0692C3.28492 84.2853 3.2322 84.4752 3.19529 84.6333C3.16365 84.7915 3.14256 84.9286 3.12674 85.0393C1.99836 84.6439 1.43417 84.4435 0.305786 84.0481C0.748702 82.7879 0.975433 82.1604 1.45526 80.916C1.70308 81.0109 1.82436 81.0584 2.07218 81.1533C1.70308 82.1235 1.51853 82.6086 1.17053 83.5893C1.78745 83.8108 2.09854 83.9215 2.71546 84.143C2.73655 84.0481 2.75764 83.9637 2.77873 83.8899C2.79983 83.8108 2.82092 83.7422 2.84201 83.679C3.08983 82.9935 3.45893 82.5242 3.93875 82.2711C4.41858 82.018 4.96695 82.0128 5.5786 82.25C6.06897 82.4399 6.42752 82.7088 6.65425 83.0515C6.87571 83.389 6.98644 83.7211 6.97589 84.0639C6.96535 84.3855 6.90735 84.6808 6.80716 84.9655L6.80189 84.955Z" fill="#231F20"/>
<path d="M8.69484 80.1359C8.5472 80.4839 8.33629 80.7475 8.05683 80.9321C7.77737 81.1114 7.461 81.2326 7.10772 81.2854C6.75444 81.3381 6.38007 81.3328 5.98461 81.2748C5.58915 81.2115 5.19897 81.1061 4.81932 80.9584C4.19186 80.7106 3.6804 80.3943 3.28493 80.0146C2.86838 79.6192 2.61529 79.2131 2.5362 78.7966C2.45183 78.3853 2.49401 77.9846 2.64692 77.6102C2.86311 77.0988 3.22693 76.7507 3.71203 76.5715C4.19713 76.3922 4.70859 76.35 5.22006 76.4344C5.69988 76.5187 6.15334 76.64 6.55408 76.814C7.1499 77.0777 7.65082 77.4151 8.0621 77.8211C8.46283 78.2219 8.70538 78.6226 8.78975 79.0233C8.87411 79.4241 8.84248 79.7932 8.70011 80.1359H8.69484ZM8.06737 79.8775C8.19919 79.5664 8.16228 79.2501 7.98301 78.9231C7.80901 78.612 7.54009 78.3326 7.18154 78.0848C6.83881 77.8528 6.51717 77.6682 6.22189 77.5417C5.77897 77.3518 5.33079 77.2253 4.8826 77.1778C4.44495 77.1304 4.09167 77.1778 3.82803 77.3202C3.56439 77.4573 3.37985 77.6418 3.28493 77.8739C3.18475 78.1164 3.16366 78.359 3.23221 78.591C3.30075 78.823 3.42203 79.0391 3.6013 79.2395C3.78058 79.4399 4.00204 79.6244 4.26568 79.7932C4.52932 79.9619 4.80878 80.1042 5.10405 80.2255C5.39933 80.3468 5.69988 80.4364 6.01098 80.4997C6.32207 80.563 6.61208 80.5893 6.88626 80.5735C7.16045 80.5577 7.403 80.4997 7.60864 80.389C7.81955 80.2835 7.97246 80.1148 8.06737 79.8775Z" fill="#231F20"/>
<path d="M9.89174 77.2252C9.63864 77.3043 9.51209 77.3465 9.259 77.4256C8.03043 74.3252 7.46624 72.7328 6.45386 69.4637C6.70169 69.3846 6.82296 69.3424 7.07078 69.2686C8.08843 72.5377 8.65263 74.1301 9.89174 77.2305V77.2252ZM7.07606 74.7945C6.99169 74.9737 6.88096 75.1266 6.7386 75.2585C6.59623 75.385 6.43805 75.4799 6.26404 75.5432C6.09004 75.6065 5.90549 75.6381 5.71567 75.6328C5.52585 75.6328 5.33603 75.5907 5.15148 75.5063C4.88257 75.385 4.67165 75.2057 4.51874 74.9579C4.36056 74.7048 4.28674 74.4517 4.29201 74.2092C4.29728 73.9666 4.34474 73.7504 4.4291 73.5659C4.55565 73.2864 4.75602 73.065 5.03548 72.9173C5.17257 72.8488 5.30966 72.8013 5.44148 72.775C5.5733 72.7486 5.69985 72.7381 5.82113 72.7381C5.9424 72.7381 6.04786 72.7539 6.14277 72.7802C6.23768 72.8066 6.3115 72.833 6.37477 72.8646C6.64896 72.9964 6.85987 73.1968 7.00224 73.4552C7.1446 73.7083 7.21842 73.9508 7.21315 74.1828C7.20788 74.4148 7.16042 74.6205 7.07606 74.7997V74.7945ZM6.52768 74.5519C6.58568 74.4254 6.60678 74.2988 6.59096 74.1775C6.57514 74.0563 6.53823 73.9455 6.4855 73.8401C6.43277 73.7399 6.3695 73.6503 6.29041 73.5764C6.21659 73.5026 6.14804 73.4552 6.09004 73.4288C5.96877 73.3655 5.83694 73.3392 5.70512 73.3497C5.5733 73.3655 5.45203 73.3972 5.34657 73.4552C5.24112 73.5079 5.15148 73.5712 5.07766 73.645C5.00384 73.7135 4.96693 73.7768 4.95111 73.819C4.88257 73.9877 4.85093 74.1881 4.90366 74.3779C4.95639 74.5572 5.03548 74.6943 5.13566 74.7839C5.23057 74.8736 5.32548 74.921 5.39403 74.9474C5.54694 75.0001 5.73149 75.0476 5.90549 75.0159C6.08477 74.9843 6.22713 74.921 6.31677 74.8366C6.40641 74.7523 6.48023 74.6574 6.52768 74.5519ZM11.8058 73.2179C11.7214 73.3919 11.6054 73.5343 11.463 73.6503C11.3207 73.7663 11.1572 73.8559 10.9832 73.9086C10.8092 73.9614 10.6247 73.9824 10.4401 73.9719C10.2503 73.9614 10.0657 73.9086 9.88119 73.819C9.63864 73.703 9.42773 73.5184 9.26954 73.2706C9.10609 73.0228 9.03754 72.7697 9.04809 72.5324C9.05863 72.2951 9.11136 72.0842 9.201 71.9102C9.33282 71.6413 9.53846 71.4357 9.81792 71.3039C9.95501 71.2406 10.0921 71.1984 10.2186 71.1773C10.3505 71.1562 10.4717 71.1457 10.5877 71.1562C10.709 71.1615 10.8092 71.1826 10.9041 71.209C10.999 71.2406 11.0781 71.2722 11.1467 71.3039C11.4156 71.4462 11.6212 71.6466 11.7583 71.905C11.8954 72.1581 11.964 72.3953 11.9534 72.6221C11.9429 72.8488 11.8954 73.0439 11.8058 73.2179ZM11.2627 72.9595C11.3207 72.8541 11.3523 72.7433 11.347 72.6221C11.347 72.5061 11.3154 72.3953 11.2679 72.2899C11.2205 72.1844 11.1625 72.0948 11.0887 72.0104C11.0148 71.9313 10.9358 71.8733 10.8567 71.8364C10.7565 71.789 10.6457 71.752 10.535 71.7415C10.4243 71.731 10.3136 71.7415 10.2081 71.7731C10.1026 71.8048 10.0077 71.8522 9.9181 71.9208C9.82846 71.9893 9.75992 72.0737 9.71246 72.1739C9.6281 72.3426 9.607 72.5272 9.65446 72.717C9.70191 72.891 9.78101 73.0333 9.87592 73.123C9.97083 73.2126 10.0605 73.2653 10.129 73.2917C10.2819 73.3497 10.4612 73.4024 10.6405 73.3813C10.8198 73.3603 10.9621 73.3023 11.0518 73.2232C11.1467 73.1441 11.2152 73.0492 11.2627 72.9595Z" fill="#231F20"/>
<path d="M13.6988 69.4696C11.4684 68.241 10.3505 67.6241 8.12012 66.3955C8.82667 65.1195 9.18523 64.4815 9.92869 63.2266C10.1554 63.3584 10.2662 63.4269 10.4929 63.564C9.9076 64.55 9.62287 65.0457 9.06395 66.0422C9.81269 66.4641 10.1871 66.6697 10.9358 67.0915C11.3418 66.3692 11.5474 66.0053 11.964 65.2935C12.1907 65.4253 12.3067 65.4939 12.5335 65.6257C12.1169 66.3428 11.9113 66.7013 11.5053 67.4237C12.5176 67.9879 13.0238 68.2726 14.0362 68.8421C13.8938 69.0952 13.8253 69.2217 13.6882 69.4748L13.6988 69.4696Z" fill="#231F20"/>
<path d="M16.6673 64.6074C16.3246 65.1611 15.8817 65.4985 15.328 65.6198C14.7744 65.7411 14.1627 65.6092 13.4878 65.2085C13.0396 64.9396 12.6969 64.6232 12.4754 64.2594C12.254 63.8903 12.1643 63.5265 12.196 63.1838C12.2276 62.841 12.3331 62.5352 12.5018 62.261C12.7549 61.8497 13.066 61.5808 13.4246 61.449C13.7936 61.3119 14.168 61.3014 14.5371 61.4015C14.9168 61.507 15.2489 61.6494 15.5389 61.8339C14.8377 62.9254 14.4949 63.4738 13.8306 64.5811C14.3262 64.8763 14.7744 65.0029 15.1751 64.9554C15.5759 64.908 15.9028 64.6812 16.1559 64.27C16.3088 64.0221 16.4037 63.7849 16.4406 63.5529C16.4775 63.3208 16.4828 63.0941 16.4511 62.8674C16.6937 62.9359 16.815 62.9676 17.0575 63.0361C17.0892 63.1785 17.0892 63.3683 17.047 63.5898C17.0048 63.8007 16.9468 63.9958 16.8782 64.1592C16.8097 64.3227 16.7359 64.4756 16.6568 64.6021L16.6673 64.6074ZM13.3771 64.2278C13.8675 63.4158 14.1153 63.015 14.6215 62.2136C14.4 62.0765 14.1627 62.0185 13.9044 62.0448C13.646 62.0712 13.4456 62.145 13.298 62.261C13.1504 62.377 13.0502 62.4877 13.0027 62.5721C12.8604 62.8252 12.7865 63.0941 12.8287 63.3736C12.8709 63.653 13.0555 63.9378 13.3771 64.2278Z" fill="#231F20"/>
<path d="M18.033 62.2668C16.5091 61.265 15.7446 60.7693 14.2155 59.7675C14.3631 59.5408 14.4369 59.43 14.5846 59.2086C14.7164 59.2718 14.7849 59.3035 14.9167 59.3667C14.9167 59.1822 14.9326 58.9607 14.98 58.7024C15.0275 58.444 15.1329 58.1962 15.2911 57.9589C15.4282 57.7585 15.5917 57.5951 15.7868 57.458C15.9818 57.3209 16.2138 57.2524 16.4828 57.2576C16.4617 57.0098 16.4828 56.7409 16.546 56.4562C16.6093 56.1714 16.7359 55.892 16.9257 55.6283C17.2051 55.2329 17.5162 54.9956 17.8537 54.9323C18.1859 54.869 18.4864 54.906 18.7553 55.043C18.8872 55.1116 19.0084 55.1749 19.1192 55.2487C19.2299 55.3172 19.3301 55.3858 19.425 55.4543C20.3108 56.1082 20.7485 56.4351 21.6343 57.0889C21.4656 57.3156 21.3865 57.4264 21.2177 57.6531C20.295 56.9782 19.8363 56.646 18.9135 55.9711C18.6024 55.7443 18.323 55.6283 18.0646 55.6178C17.8062 55.6125 17.5637 55.7601 17.337 56.0765C17.1999 56.2663 17.1102 56.4931 17.0628 56.762C17.01 57.0309 16.9995 57.2471 17.0206 57.4C17.221 57.4685 17.4582 57.6004 17.7324 57.7902C18.6341 58.4229 19.0875 58.7393 19.9892 59.372C19.8257 59.604 19.7466 59.7148 19.5884 59.9468C18.6499 59.2982 18.1806 58.9713 17.242 58.3227C16.894 58.0855 16.5935 57.9747 16.3404 58.0011C16.0873 58.0275 15.8764 58.1645 15.7077 58.4124C15.5864 58.5916 15.5073 58.8078 15.4809 59.0451C15.4546 59.2877 15.444 59.5091 15.444 59.7095C16.6304 60.4951 17.221 60.8906 18.4073 61.6762C18.2544 61.9082 18.1753 62.0295 18.0224 62.2615L18.033 62.2668Z" fill="#231F20"/>
<path d="M23.2056 55.1961C23.0896 55.349 22.9525 55.4756 22.7944 55.581C22.6362 55.6865 22.4727 55.755 22.2934 55.7972C22.1142 55.8394 21.9296 55.8394 21.7345 55.7972C21.5394 55.755 21.3496 55.6654 21.1651 55.523C20.8118 55.2594 20.6325 54.9166 20.6272 54.4895C20.6272 54.0677 20.7221 53.6617 20.9331 53.2926C21.0491 53.0923 21.1545 52.913 21.2494 52.7653C21.3443 52.6124 21.434 52.4859 21.5131 52.3804C21.4972 52.3646 21.4867 52.3593 21.4709 52.3435C21.1703 52.1062 20.9067 52.0008 20.6747 52.0271C20.4427 52.0535 20.237 52.1853 20.0525 52.4226C19.7783 52.7759 19.6412 53.2135 19.6465 53.7355C19.4198 53.6828 19.3038 53.6564 19.077 53.6037C19.077 53.3875 19.1139 53.145 19.1825 52.8761C19.251 52.6072 19.3987 52.3224 19.6359 52.0166C19.947 51.6159 20.3003 51.3839 20.68 51.3259C21.0596 51.2679 21.492 51.4313 21.9665 51.811C22.8945 52.5544 23.3533 52.9235 24.2813 53.667C24.1178 53.8674 24.0387 53.9675 23.8806 54.1732C23.7487 54.0835 23.6855 54.0414 23.5536 53.9517C23.58 54.1732 23.5695 54.3841 23.5115 54.595C23.4587 54.8059 23.3533 55.001 23.2109 55.1908L23.2056 55.1961ZM22.7785 54.7637C22.9104 54.595 22.9947 54.4105 23.0316 54.2154C23.0685 54.0203 23.0844 53.8199 23.0791 53.6248C22.6362 53.2715 22.4147 53.0975 21.9718 52.7495C21.5763 53.2768 21.3443 53.725 21.2758 54.0888C21.202 54.4526 21.3127 54.7426 21.6027 54.9641C21.7662 55.0854 21.9402 55.1486 22.1194 55.1381C22.304 55.1276 22.4464 55.0801 22.5465 55.001C22.6467 54.9219 22.7205 54.8428 22.7838 54.7637H22.7785Z" fill="#231F20"/>
<path d="M25.7207 52.0425C25.4781 52.3325 25.2303 52.4696 24.9772 52.4432C24.7241 52.4169 24.4288 52.2692 24.0914 51.9898C22.4937 50.6821 21.6975 50.023 20.0999 48.7154C20.2897 48.4834 20.3846 48.3726 20.5744 48.1406C22.1984 49.4905 23.0104 50.1654 24.6345 51.5152C24.7979 51.647 24.935 51.7209 25.0458 51.7314C25.1565 51.742 25.2567 51.6945 25.3463 51.589C25.4148 51.5099 25.4781 51.3676 25.5361 51.1567C25.747 51.2463 25.8472 51.2938 26.0581 51.3834C26.037 51.4783 26.0001 51.5838 25.9474 51.6998C25.8947 51.8158 25.8209 51.9318 25.7259 52.0478L25.7207 52.0425Z" fill="#231F20"/>
<path d="M27.8194 49.6328C27.387 50.1232 26.8861 50.3816 26.3219 50.408C25.7577 50.4343 25.1724 50.2023 24.5766 49.6908C24.1811 49.3534 23.8964 48.979 23.7435 48.5836C23.5853 48.1828 23.5589 47.8085 23.6538 47.4763C23.7488 47.1441 23.9017 46.8594 24.1126 46.6168C24.4342 46.253 24.7875 46.0368 25.1671 45.9682C25.5573 45.8944 25.9264 45.9472 26.2744 46.1106C26.6277 46.2741 26.9388 46.4744 27.1919 46.7064C26.3113 47.6661 25.879 48.1512 25.0301 49.1372C25.4677 49.5116 25.8895 49.7119 26.2903 49.733C26.6963 49.7541 27.0548 49.5854 27.3765 49.2216C27.5715 49.0054 27.7034 48.7839 27.7772 48.5625C27.851 48.341 27.8985 48.1143 27.909 47.8875C28.1357 47.993 28.2517 48.0457 28.4785 48.1565C28.4837 48.3041 28.4521 48.4887 28.373 48.6996C28.2992 48.8999 28.2043 49.0845 28.1094 49.2374C28.0145 49.3903 27.9196 49.5221 27.8141 49.6381L27.8194 49.6328ZM24.6346 48.7048C25.2568 47.9877 25.5732 47.6292 26.2059 46.9226C26.0108 46.7486 25.7841 46.6537 25.531 46.6326C25.2726 46.6168 25.0617 46.6537 24.893 46.7434C24.7242 46.833 24.6135 46.9279 24.5502 47.0017C24.3657 47.2232 24.2497 47.4815 24.2391 47.7663C24.2339 48.051 24.3657 48.3621 24.6346 48.6996V48.7048Z" fill="#231F20"/>
<path d="M37.9168 102.008C37.8113 102.298 37.6689 102.577 37.4791 102.836C37.2998 103.083 37.1364 103.257 37.0098 103.358C36.8833 103.458 36.7884 103.516 36.7304 103.537C36.5247 103.336 36.4193 103.236 36.2189 103.041C36.4193 102.925 36.6249 102.762 36.8306 102.556C37.0362 102.345 37.1944 102.082 37.3104 101.781C37.4053 101.538 37.4422 101.312 37.4158 101.111C37.3895 100.911 37.3315 100.737 37.2313 100.589C37.1364 100.436 37.0151 100.315 36.878 100.22C36.7409 100.125 36.5986 100.057 36.472 100.015C36.0502 99.867 35.6547 99.8564 35.3014 100.036C34.9534 100.21 34.674 100.574 34.4789 101.122C34.3998 101.338 34.3471 101.528 34.3102 101.686C34.2785 101.844 34.2574 101.981 34.2416 102.092C33.1132 101.697 32.549 101.496 31.4207 101.101C31.8636 99.8406 32.0903 99.2131 32.5701 97.9688C32.8179 98.0637 32.9392 98.1111 33.187 98.206C32.8179 99.1762 32.6334 99.6613 32.2854 100.642C32.9023 100.864 33.2134 100.974 33.8303 101.196C33.8514 101.101 33.8725 101.016 33.8936 100.943C33.9147 100.864 33.9358 100.795 33.9569 100.732C34.2047 100.046 34.5738 99.577 35.0536 99.3239C35.5334 99.0708 36.0818 99.0655 36.6935 99.3028C37.1838 99.4926 37.5424 99.7615 37.7691 100.104C37.9906 100.442 38.1013 100.774 38.0908 101.117C38.0802 101.438 38.0222 101.734 37.922 102.018L37.9168 102.008Z" fill="#231F20"/>
<path d="M39.8097 97.1886C39.6621 97.5366 39.4512 97.8003 39.1717 97.9848C38.8922 98.1641 38.5759 98.2854 38.2226 98.3381C37.8693 98.3908 37.4949 98.3856 37.0995 98.3275C36.704 98.2643 36.3138 98.1588 35.9342 98.0112C35.3067 97.7634 34.7953 97.447 34.3998 97.0673C33.9833 96.6719 33.7302 96.2659 33.6511 95.8493C33.5667 95.4381 33.6089 95.0373 33.7618 94.6629C33.978 94.1515 34.3418 93.8035 34.8269 93.6242C35.312 93.4449 35.8235 93.4027 36.3349 93.4871C36.8148 93.5715 37.2682 93.6928 37.6689 93.8668C38.2648 94.1304 38.7657 94.4679 39.177 94.8739C39.5777 95.2746 39.8203 95.6753 39.9046 96.0761C39.989 96.4768 39.9573 96.8459 39.815 97.1886H39.8097ZM39.1822 96.9303C39.3141 96.6192 39.2772 96.3028 39.0979 95.9759C38.9239 95.6648 38.655 95.3853 38.2964 95.1375C37.9537 94.9055 37.632 94.7209 37.3368 94.5944C36.8938 94.4046 36.4457 94.278 35.9975 94.2306C35.5598 94.1831 35.2065 94.2306 34.9429 94.3729C34.6793 94.51 34.4947 94.6946 34.3998 94.9266C34.2996 95.1691 34.2785 95.4117 34.3471 95.6437C34.4156 95.8757 34.5369 96.0919 34.7162 96.2922C34.8954 96.4926 35.1169 96.6772 35.3805 96.8459C35.6442 97.0146 35.9236 97.157 36.2189 97.2783C36.5142 97.3995 36.8148 97.4892 37.1258 97.5524C37.4369 97.6157 37.7269 97.6421 38.0011 97.6263C38.2753 97.6104 38.5179 97.5524 38.7235 97.4417C38.9344 97.3363 39.0873 97.1675 39.1822 96.9303Z" fill="#231F20"/>
<path d="M41.0066 94.278C40.7535 94.3571 40.627 94.3992 40.3739 94.4783C39.1453 91.3779 38.5811 89.7855 37.5687 86.5164C37.8166 86.4373 37.9378 86.3951 38.1856 86.3213C39.2033 89.5904 39.7675 91.1828 41.0066 94.2832V94.278ZM38.1909 91.8472C38.1066 92.0265 37.9958 92.1794 37.8535 92.3112C37.7111 92.4378 37.5529 92.5327 37.3789 92.5959C37.2049 92.6592 37.0204 92.6908 36.8305 92.6856C36.6407 92.6856 36.4509 92.6434 36.2663 92.559C35.9974 92.4377 35.7865 92.2585 35.6336 92.0106C35.4754 91.7576 35.4016 91.5045 35.4069 91.2619C35.4122 91.0194 35.4596 90.8032 35.544 90.6186C35.6705 90.3392 35.8709 90.1177 36.1503 89.9701C36.2874 89.9015 36.4245 89.8541 36.5564 89.8277C36.6882 89.8013 36.8147 89.7908 36.936 89.7908C37.0573 89.7908 37.1627 89.8066 37.2576 89.833C37.3525 89.8593 37.4264 89.8857 37.4896 89.9173C37.7638 90.0492 37.9747 90.2495 38.1171 90.5079C38.2595 90.761 38.3333 91.0035 38.328 91.2355C38.3227 91.4675 38.2753 91.6732 38.1909 91.8525V91.8472ZM37.6426 91.6046C37.7006 91.4781 37.7216 91.3515 37.7058 91.2303C37.69 91.109 37.6531 90.9983 37.6004 90.8928C37.5476 90.7926 37.4844 90.703 37.4053 90.6292C37.3315 90.5554 37.2629 90.5079 37.2049 90.4815C37.0836 90.4183 36.9518 90.3919 36.82 90.4024C36.6882 90.4183 36.5669 90.4499 36.4614 90.5079C36.356 90.5606 36.2663 90.6239 36.1925 90.6977C36.1187 90.7663 36.0818 90.8295 36.066 90.8717C35.9974 91.0404 35.9658 91.2408 36.0185 91.4306C36.0713 91.6099 36.1503 91.747 36.2505 91.8366C36.3454 91.9263 36.4403 91.9737 36.5089 92.0001C36.6618 92.0528 36.8464 92.1003 37.0204 92.0686C37.1996 92.037 37.342 91.9737 37.4316 91.8894C37.5213 91.805 37.5951 91.7101 37.6426 91.6046ZM42.9206 90.2706C42.8363 90.4446 42.7203 90.587 42.5779 90.703C42.4355 90.819 42.2721 90.9086 42.0981 90.9614C41.9241 91.0141 41.7395 91.0352 41.555 91.0246C41.3652 91.0141 41.1806 90.9614 40.9961 90.8717C40.7535 90.7557 40.5426 90.5712 40.3844 90.3234C40.221 90.0755 40.1524 89.8224 40.163 89.5852C40.1735 89.3479 40.2262 89.137 40.3159 88.963C40.4477 88.6941 40.6533 88.4884 40.9328 88.3566C41.0699 88.2933 41.207 88.2511 41.3335 88.23C41.4653 88.209 41.5866 88.1984 41.7026 88.2089C41.8239 88.2142 41.9241 88.2353 42.019 88.2617C42.1139 88.2933 42.193 88.325 42.2615 88.3566C42.5304 88.499 42.7361 88.6993 42.8732 88.9577C43.0103 89.2108 43.0788 89.4481 43.0683 89.6748C43.0577 89.9015 43.0103 90.0966 42.9206 90.2706ZM42.3775 90.0123C42.4355 89.9068 42.4672 89.7961 42.4619 89.6748C42.4619 89.5588 42.4303 89.4481 42.3828 89.3426C42.3354 89.2372 42.2774 89.1475 42.2035 89.0631C42.1297 88.9841 42.0506 88.9261 41.9715 88.8891C41.8713 88.8417 41.7606 88.8048 41.6499 88.7942C41.5392 88.7837 41.4284 88.7942 41.323 88.8259C41.2175 88.8575 41.1226 88.905 41.033 88.9735C40.9433 89.0421 40.8748 89.1264 40.8273 89.2266C40.743 89.3953 40.7219 89.5799 40.7693 89.7697C40.8168 89.9437 40.8959 90.0861 40.9908 90.1757C41.0857 90.2654 41.1753 90.3181 41.2439 90.3444C41.3968 90.4024 41.5761 90.4552 41.7553 90.4341C41.9346 90.413 42.077 90.355 42.1666 90.2759C42.2615 90.1968 42.3301 90.1019 42.3775 90.0123Z" fill="#231F20"/>
<path d="M44.8136 86.5272C42.5832 85.2986 41.4654 84.6817 39.235 83.4531C39.9415 82.1771 40.3001 81.5391 41.0436 80.2842C41.2703 80.416 41.381 80.4845 41.6077 80.6216C41.0225 81.6077 40.7377 82.1033 40.1788 83.0999C40.9276 83.5217 41.3019 83.7273 42.0507 84.1492C42.4567 83.4268 42.6623 83.0629 43.0789 82.3511C43.3056 82.4829 43.4216 82.5515 43.6483 82.6833C43.2318 83.4004 43.0261 83.759 42.6201 84.4813C43.6325 85.0455 44.1387 85.3303 45.1511 85.8997C45.0087 86.1528 44.9402 86.2794 44.8031 86.5325L44.8136 86.5272Z" fill="#231F20"/>
<path d="M47.777 81.665C47.4342 82.2187 46.9913 82.5561 46.4377 82.6774C45.884 82.7987 45.2724 82.6669 44.5974 82.2661C44.1493 81.9972 43.8065 81.6808 43.5851 81.317C43.3636 80.9479 43.274 80.5841 43.3056 80.2414C43.3372 79.8986 43.4427 79.5928 43.6114 79.3186C43.8645 78.9073 44.1756 78.6384 44.5342 78.5066C44.9033 78.3695 45.2776 78.359 45.6467 78.4592C46.0264 78.5646 46.3586 78.707 46.6486 78.8915C45.9473 79.983 45.6046 80.5314 44.9402 81.6387C45.4358 81.9339 45.884 82.0605 46.2847 82.013C46.6855 81.9656 47.0124 81.7389 47.2655 81.3276C47.4184 81.0798 47.5133 80.8425 47.5502 80.6105C47.5871 80.3785 47.5924 80.1517 47.5608 79.925C47.8033 79.9936 47.9246 80.0252 48.1671 80.0937C48.1988 80.2361 48.1988 80.4259 48.1566 80.6474C48.1144 80.8583 48.0564 81.0534 47.9879 81.2168C47.9193 81.3803 47.8455 81.5332 47.7664 81.6598L47.777 81.665ZM44.4867 81.2854C44.9771 80.4734 45.2249 80.0726 45.7311 79.2712C45.5096 79.1341 45.2724 79.0761 45.014 79.1024C44.7556 79.1288 44.5553 79.2026 44.4076 79.3186C44.26 79.4346 44.1598 79.5454 44.1123 79.6297C43.97 79.8828 43.8962 80.1517 43.9383 80.4312C43.9805 80.7106 44.1651 80.9954 44.4867 81.2854Z" fill="#231F20"/>
<path d="M49.1426 79.3244C47.6187 78.3226 46.8542 77.8269 45.3251 76.8251C45.4727 76.5984 45.5465 76.4876 45.6942 76.2662C45.826 76.3295 45.8945 76.3611 46.0264 76.4244C46.0264 76.2398 46.0422 76.0184 46.0896 75.76C46.1371 75.5016 46.2425 75.2538 46.4007 75.0165C46.5378 74.8162 46.7013 74.6527 46.8964 74.5156C47.0915 74.3785 47.3235 74.31 47.5924 74.3152C47.5713 74.0674 47.5924 73.7985 47.6557 73.5138C47.7189 73.229 47.8455 72.9496 48.0353 72.6859C48.3148 72.2905 48.6259 72.0532 48.9633 71.9899C49.2955 71.9267 49.5961 71.9636 49.865 72.1007C49.9968 72.1692 50.1181 72.2325 50.2288 72.3063C50.3395 72.3749 50.4397 72.4434 50.5346 72.5119C51.4204 73.1658 51.8581 73.4927 52.7439 74.1465C52.5752 74.3732 52.4961 74.484 52.3274 74.7107C51.4046 74.0358 50.9459 73.7036 50.0231 73.0287C49.7121 72.8019 49.4326 72.6859 49.1742 72.6754C48.9159 72.6701 48.6733 72.8178 48.4466 73.1341C48.3095 73.324 48.2198 73.5507 48.1724 73.8196C48.1197 74.0885 48.1091 74.3047 48.1302 74.4576C48.3306 74.5262 48.5679 74.658 48.842 74.8478C49.7437 75.4805 50.1972 75.7969 51.0988 76.4296C50.9353 76.6616 50.8563 76.7724 50.6981 77.0044C49.7595 76.3558 49.2902 76.0289 48.3517 75.3804C48.0037 75.1431 47.7031 75.0323 47.45 75.0587C47.1969 75.0851 46.986 75.2222 46.8173 75.47C46.696 75.6493 46.6169 75.8654 46.5905 76.1027C46.5642 76.3453 46.5536 76.5667 46.5536 76.7671C47.74 77.5527 48.3306 77.9482 49.517 78.7339C49.364 78.9659 49.285 79.0871 49.132 79.3191L49.1426 79.3244Z" fill="#231F20"/>
<path d="M54.3205 72.2537C54.2045 72.4066 54.0674 72.5332 53.9092 72.6386C53.751 72.7441 53.5876 72.8126 53.4083 72.8548C53.229 72.897 53.0445 72.897 52.8494 72.8548C52.6543 72.8126 52.4645 72.723 52.2799 72.5806C51.9266 72.317 51.7474 71.9743 51.7421 71.5472C51.7421 71.1253 51.837 70.7193 52.0479 70.3502C52.1639 70.1499 52.2694 69.9706 52.3643 69.823C52.4592 69.67 52.5488 69.5435 52.6279 69.438C52.6121 69.4222 52.6016 69.4169 52.5858 69.4011C52.2852 69.1638 52.0216 69.0584 51.7896 69.0848C51.5576 69.1111 51.3519 69.2429 51.1674 69.4802C50.8932 69.8335 50.7561 70.2711 50.7614 70.7931C50.5346 70.7404 50.4186 70.7141 50.1919 70.6613C50.1919 70.4451 50.2288 70.2026 50.2973 69.9337C50.3659 69.6648 50.5135 69.38 50.7508 69.0742C51.0619 68.6735 51.4152 68.4415 51.7948 68.3835C52.1745 68.3255 52.6068 68.4889 53.0814 68.8686C54.0094 69.612 54.4681 69.9811 55.3962 70.7246C55.2327 70.925 55.1536 71.0252 54.9954 71.2308C54.8636 71.1412 54.8003 71.099 54.6685 71.0093C54.6949 71.2308 54.6843 71.4417 54.6263 71.6526C54.5736 71.8635 54.4681 72.0586 54.3258 72.2484L54.3205 72.2537ZM53.8934 71.8213C54.0252 71.6526 54.1096 71.4681 54.1465 71.273C54.1834 71.0779 54.1992 70.8775 54.194 70.6824C53.751 70.3291 53.5296 70.1551 53.0867 69.8071C52.6912 70.3344 52.4592 70.7826 52.3907 71.1464C52.3168 71.5102 52.4276 71.8003 52.7176 72.0217C52.881 72.143 53.055 72.2063 53.2343 72.1957C53.4189 72.1852 53.5612 72.1377 53.6614 72.0586C53.7616 71.9795 53.8354 71.9004 53.8987 71.8213H53.8934Z" fill="#231F20"/>
<path d="M56.8303 69.1001C56.5877 69.3901 56.3399 69.5272 56.0868 69.5009C55.8337 69.4745 55.5384 69.3269 55.201 69.0474C53.6033 67.7397 52.8071 67.0806 51.2095 65.773C51.3993 65.541 51.4942 65.4302 51.684 65.1982C53.308 66.5481 54.1201 67.223 55.7441 68.5728C55.9075 68.7047 56.0446 68.7785 56.1554 68.789C56.2661 68.7996 56.3663 68.7521 56.4559 68.6467C56.5245 68.5676 56.5877 68.4252 56.6457 68.2143C56.8567 68.3039 56.9568 68.3514 57.1677 68.441C57.1467 68.5359 57.1097 68.6414 57.057 68.7574C57.0043 68.8734 56.9305 68.9894 56.8356 69.1054L56.8303 69.1001Z" fill="#231F20"/>
<path d="M58.9342 66.6905C58.5019 67.1808 58.0009 67.4392 57.4368 67.4656C56.8726 67.4919 56.2873 67.2599 55.6915 66.7485C55.296 66.411 55.0113 66.0366 54.8584 65.6412C54.7002 65.2404 54.6738 64.8661 54.7687 64.5339C54.8636 64.2017 55.0165 63.917 55.2274 63.6744C55.5491 63.3106 55.9024 63.0944 56.282 63.0259C56.6722 62.952 57.0413 63.0048 57.3893 63.1682C57.7426 63.3317 58.0537 63.5321 58.3068 63.7641C57.4262 64.7237 56.9938 65.2088 56.1449 66.1948C56.5826 66.5692 57.0044 66.7696 57.4051 66.7906C57.8111 66.8117 58.1697 66.643 58.4913 66.2792C58.6864 66.063 58.8182 65.8415 58.8921 65.6201C58.9659 65.3986 59.0133 65.1719 59.0239 64.9452C59.2506 65.0506 59.3666 65.1034 59.5933 65.2141C59.5986 65.3617 59.567 65.5463 59.4879 65.7572C59.4141 65.9575 59.3191 66.1421 59.2242 66.295C59.1293 66.4479 59.0344 66.5797 58.929 66.6957L58.9342 66.6905ZM55.7495 65.7625C56.3717 65.0454 56.688 64.6868 57.3208 63.9802C57.1257 63.8062 56.8989 63.7113 56.6458 63.6902C56.3875 63.6744 56.1766 63.7113 56.0078 63.801C55.8391 63.8906 55.7284 63.9855 55.6651 64.0593C55.4805 64.2808 55.3645 64.5392 55.354 64.8239C55.3487 65.1086 55.4805 65.4197 55.7495 65.7572V65.7625Z" fill="#231F20"/>
<path d="M64.381 118.785C64.2755 119.075 64.1332 119.355 63.9433 119.613C63.7641 119.861 63.6006 120.035 63.4741 120.135C63.3475 120.235 63.2526 120.293 63.1946 120.314C62.989 120.114 62.8835 120.014 62.6831 119.819C62.8835 119.703 63.0892 119.539 63.2948 119.333C63.5004 119.123 63.6586 118.859 63.7746 118.558C63.8695 118.316 63.9064 118.089 63.8801 117.889C63.8537 117.688 63.7957 117.514 63.6955 117.367C63.6006 117.214 63.4793 117.092 63.3422 116.998C63.2052 116.903 63.0628 116.834 62.9362 116.792C62.5144 116.644 62.119 116.634 61.7657 116.813C61.4177 116.987 61.1382 117.351 60.9431 117.899C60.864 118.115 60.8113 118.305 60.7744 118.463C60.7428 118.622 60.7217 118.759 60.7058 118.869C59.5775 118.474 59.0133 118.274 57.8849 117.878C58.3278 116.618 58.5545 115.99 59.0344 114.746C59.2822 114.841 59.4035 114.888 59.6513 114.983C59.2822 115.954 59.0976 116.439 58.7496 117.419C59.3665 117.641 59.6776 117.752 60.2946 117.973C60.3157 117.878 60.3367 117.794 60.3578 117.72C60.3789 117.641 60.4 117.572 60.4211 117.509C60.6689 116.824 61.038 116.354 61.5179 116.101C61.9977 115.848 62.5461 115.843 63.1577 116.08C63.6481 116.27 64.0066 116.539 64.2334 116.882C64.4548 117.219 64.5655 117.551 64.555 117.894C64.5444 118.216 64.4864 118.511 64.3863 118.796L64.381 118.785Z" fill="#231F20"/>
<path d="M66.2792 113.966C66.1315 114.314 65.9206 114.578 65.6412 114.762C65.3617 114.941 65.0454 115.063 64.6921 115.115C64.3388 115.168 63.9644 115.163 63.569 115.105C63.1735 115.042 62.7833 114.936 62.4037 114.789C61.7762 114.541 61.2647 114.224 60.8693 113.845C60.4527 113.449 60.1996 113.043 60.1205 112.627C60.0362 112.215 60.0784 111.815 60.2313 111.44C60.4475 110.929 60.8113 110.581 61.2964 110.402C61.7815 110.222 62.2929 110.18 62.8044 110.264C63.2842 110.349 63.7377 110.47 64.1384 110.644C64.7343 110.908 65.2352 111.245 65.6465 111.651C66.0472 112.052 66.2897 112.453 66.3741 112.853C66.4585 113.254 66.4268 113.623 66.2845 113.966H66.2792ZM65.6517 113.708C65.7835 113.397 65.7466 113.08 65.5674 112.753C65.3934 112.442 65.1244 112.163 64.7659 111.915C64.4232 111.683 64.1015 111.498 63.8062 111.372C63.3633 111.182 62.9151 111.055 62.4669 111.008C62.0293 110.96 61.676 111.008 61.4124 111.15C61.1487 111.287 60.9642 111.472 60.8693 111.704C60.7691 111.946 60.748 112.189 60.8166 112.421C60.8851 112.653 61.0064 112.869 61.1857 113.07C61.3649 113.27 61.5864 113.455 61.85 113.623C62.1137 113.792 62.3931 113.934 62.6884 114.056C62.9837 114.177 63.2842 114.267 63.5953 114.33C63.9064 114.393 64.1964 114.419 64.4706 114.404C64.7448 114.388 64.9874 114.33 65.193 114.219C65.4039 114.114 65.5568 113.945 65.6517 113.708Z" fill="#231F20"/>
<path d="M67.4708 111.055C67.2177 111.134 67.0912 111.177 66.8381 111.256C65.6095 108.155 65.0453 106.563 64.033 103.294C64.2808 103.215 64.4021 103.172 64.6499 103.099C65.6675 106.368 66.2317 107.96 67.4708 111.061V111.055ZM64.6552 108.625C64.5708 108.804 64.4601 108.957 64.3177 109.089C64.1753 109.215 64.0171 109.31 63.8431 109.373C63.6691 109.437 63.4846 109.468 63.2948 109.463C63.105 109.463 62.9151 109.421 62.7306 109.336C62.4617 109.215 62.2508 109.036 62.0978 108.788C61.9397 108.535 61.8658 108.282 61.8711 108.039C61.8764 107.797 61.9238 107.581 62.0082 107.396C62.1348 107.117 62.3351 106.895 62.6146 106.747C62.7517 106.679 62.8888 106.631 63.0206 106.605C63.1524 106.579 63.279 106.568 63.4002 106.568C63.5215 106.568 63.627 106.584 63.7219 106.61C63.8168 106.637 63.8906 106.663 63.9539 106.695C64.2281 106.827 64.439 107.027 64.5813 107.285C64.7237 107.538 64.7975 107.781 64.7923 108.013C64.787 108.245 64.7395 108.451 64.6552 108.63V108.625ZM64.1068 108.382C64.1648 108.255 64.1859 108.129 64.1701 108.008C64.1542 107.886 64.1173 107.776 64.0646 107.67C64.0119 107.57 63.9486 107.48 63.8695 107.407C63.7957 107.333 63.7271 107.285 63.6691 107.259C63.5479 107.196 63.416 107.169 63.2842 107.18C63.1524 107.196 63.0311 107.227 62.9257 107.285C62.8202 107.338 62.7306 107.401 62.6568 107.475C62.5829 107.544 62.546 107.607 62.5302 107.649C62.4617 107.818 62.43 108.018 62.4828 108.208C62.5355 108.387 62.6146 108.524 62.7148 108.614C62.8097 108.704 62.9046 108.751 62.9731 108.777C63.126 108.83 63.3106 108.878 63.4846 108.846C63.6639 108.814 63.8062 108.751 63.8959 108.667C63.9855 108.582 64.0593 108.487 64.1068 108.382ZM69.3849 107.048C69.3005 107.222 69.1845 107.364 69.0421 107.48C68.8998 107.596 68.7363 107.686 68.5623 107.739C68.3883 107.791 68.2038 107.813 68.0192 107.802C67.8294 107.791 67.6448 107.739 67.4603 107.649C67.2177 107.533 67.0068 107.349 66.8486 107.101C66.6852 106.853 66.6166 106.6 66.6272 106.363C66.6377 106.125 66.6905 105.914 66.7801 105.74C66.9119 105.471 67.1176 105.266 67.397 105.134C67.5341 105.071 67.6712 105.028 67.7978 105.007C67.9296 104.986 68.0508 104.976 68.1669 104.986C68.2881 104.992 68.3883 105.013 68.4832 105.039C68.5781 105.071 68.6572 105.102 68.7258 105.134C68.9947 105.276 69.2003 105.477 69.3374 105.735C69.4745 105.988 69.5431 106.225 69.5325 106.452C69.522 106.679 69.4745 106.874 69.3849 107.048ZM68.8418 106.79C68.8998 106.684 68.9314 106.573 68.9261 106.452C68.9261 106.336 68.8945 106.225 68.847 106.12C68.7996 106.014 68.7416 105.925 68.6678 105.84C68.5939 105.761 68.5149 105.703 68.4358 105.666C68.3356 105.619 68.2248 105.582 68.1141 105.572C68.0034 105.561 67.8927 105.572 67.7872 105.603C67.6818 105.635 67.5868 105.682 67.4972 105.751C67.4076 105.819 67.339 105.904 67.2916 106.004C67.2072 106.173 67.1861 106.357 67.2336 106.547C67.281 106.721 67.3601 106.863 67.455 106.953C67.5499 107.043 67.6396 107.095 67.7081 107.122C67.861 107.18 68.0403 107.233 68.2196 107.211C68.3989 107.19 68.5412 107.132 68.6309 107.053C68.7258 106.974 68.7943 106.879 68.8418 106.79Z" fill="#231F20"/>
<path d="M71.2778 103.305C69.0475 102.076 67.9296 101.459 65.6992 100.23C66.4058 98.9545 66.7643 98.3165 67.5078 97.0615C67.7345 97.1933 67.8453 97.2619 68.072 97.399C67.4867 98.385 67.202 98.8806 66.6431 99.8772C67.3918 100.299 67.7662 100.505 68.5149 100.926C68.9209 100.204 69.1265 99.8403 69.5431 99.1285C69.7698 99.2603 69.8858 99.3288 70.1126 99.4607C69.696 100.178 69.4904 100.536 69.0844 101.259C70.0967 101.823 70.6029 102.108 71.6153 102.677C71.473 102.93 71.4044 103.057 71.2673 103.31L71.2778 103.305Z" fill="#231F20"/>
<path d="M74.2464 98.4434C73.9037 98.997 73.4608 99.3345 72.9071 99.4557C72.3535 99.577 71.7418 99.4452 71.0669 99.0445C70.6187 98.7755 70.276 98.4592 70.0545 98.0953C69.8331 97.7262 69.7435 97.3624 69.7751 97.0197C69.8067 96.677 69.9122 96.3711 70.0809 96.097C70.334 95.6857 70.6451 95.4168 71.0037 95.2849C71.3728 95.1478 71.7471 95.1373 72.1162 95.2375C72.4959 95.3429 72.828 95.4853 73.118 95.6699C72.4168 96.7613 72.074 97.3097 71.4097 98.417C71.9053 98.7123 72.3535 98.8388 72.7542 98.7914C73.155 98.7439 73.4819 98.5172 73.735 98.1059C73.8879 97.8581 73.9828 97.6208 74.0197 97.3888C74.0566 97.1568 74.0619 96.9301 74.0302 96.7033C74.2728 96.7719 74.3941 96.8035 74.6366 96.8721C74.6683 97.0144 74.6683 97.2042 74.6261 97.4257C74.5839 97.6366 74.5259 97.8317 74.4573 97.9952C74.3888 98.1586 74.315 98.3115 74.2359 98.4381L74.2464 98.4434ZM70.9562 98.0637C71.4466 97.2517 71.6944 96.851 72.2006 96.0495C71.9791 95.9124 71.7418 95.8544 71.4835 95.8808C71.2251 95.9071 71.0247 95.9809 70.8771 96.097C70.7295 96.213 70.6293 96.3237 70.5818 96.408C70.4395 96.6611 70.3656 96.9301 70.4078 97.2095C70.45 97.489 70.6346 97.7737 70.9562 98.0637Z" fill="#231F20"/>
<path d="M75.6121 96.1018C74.0882 95.0999 73.3237 94.6043 71.7946 93.6024C71.9422 93.3757 72.016 93.265 72.1637 93.0435C72.2955 93.1068 72.364 93.1384 72.4958 93.2017C72.4958 93.0172 72.5117 92.7957 72.5591 92.5373C72.6066 92.279 72.712 92.0311 72.8702 91.7939C73.0073 91.5935 73.1708 91.43 73.3659 91.293C73.5609 91.1559 73.793 91.0873 74.0619 91.0926C74.0408 90.8448 74.0619 90.5759 74.1251 90.2911C74.1884 90.0064 74.315 89.7269 74.5048 89.4633C74.7842 89.0678 75.0953 88.8306 75.4328 88.7673C75.765 88.704 76.0655 88.7409 76.3344 88.878C76.4663 88.9465 76.5875 89.0098 76.6983 89.0836C76.809 89.1522 76.9092 89.2207 77.0041 89.2893C77.8899 89.9431 78.3276 90.27 79.2134 90.9239C79.0447 91.1506 78.9656 91.2613 78.7968 91.488C77.8741 90.8131 77.4154 90.4809 76.4926 89.806C76.1815 89.5793 75.9021 89.4633 75.6437 89.4527C75.3853 89.4475 75.1428 89.5951 74.9161 89.9115C74.779 90.1013 74.6893 90.328 74.6419 90.5969C74.5891 90.8659 74.5786 91.082 74.5997 91.2349C74.8001 91.3035 75.0373 91.4353 75.3115 91.6251C76.2132 92.2579 76.6666 92.5742 77.5683 93.207C77.4048 93.439 77.3257 93.5497 77.1676 93.7817C76.229 93.1332 75.7597 92.8062 74.8211 92.1577C74.4731 91.9204 74.1726 91.8097 73.9195 91.836C73.6664 91.8624 73.4555 91.9995 73.2868 92.2473C73.1655 92.4266 73.0864 92.6428 73.06 92.8801C73.0337 93.1226 73.0231 93.3441 73.0231 93.5444C74.2095 94.3301 74.8001 94.7255 75.9864 95.5112C75.8335 95.7432 75.7544 95.8645 75.6015 96.0965L75.6121 96.1018Z" fill="#231F20"/>
<path d="M80.7847 89.0262C80.6687 89.1791 80.5316 89.3056 80.3735 89.4111C80.2153 89.5166 80.0518 89.5851 79.8725 89.6273C79.6933 89.6695 79.5087 89.6695 79.3136 89.6273C79.1185 89.5851 78.9287 89.4955 78.7442 89.3531C78.3909 89.0895 78.2116 88.7467 78.2063 88.3196C78.2063 87.8978 78.3012 87.4918 78.5122 87.1227C78.6282 86.9223 78.7336 86.743 78.8285 86.5954C78.9234 86.4425 79.0131 86.316 79.0922 86.2105C79.0763 86.1947 79.0658 86.1894 79.05 86.1736C78.7494 85.9363 78.4858 85.8309 78.2538 85.8572C78.0218 85.8836 77.8161 86.0154 77.6316 86.2527C77.3574 86.606 77.2203 87.0436 77.2256 87.5656C76.9989 87.5129 76.8829 87.4865 76.6561 87.4338C76.6561 87.2176 76.693 86.9751 76.7616 86.7061C76.8301 86.4372 76.9778 86.1525 77.215 85.8467C77.5261 85.4459 77.8794 85.2139 78.2591 85.1559C78.6387 85.0979 79.0711 85.2614 79.5456 85.641C80.4736 86.3845 80.9324 86.7536 81.8604 87.4971C81.6969 87.6974 81.6178 87.7976 81.4597 88.0033C81.3278 87.9136 81.2646 87.8714 81.1327 87.7818C81.1591 88.0033 81.1486 88.2142 81.0906 88.4251C81.0378 88.636 80.9324 88.8311 80.79 89.0209L80.7847 89.0262ZM80.3576 88.5938C80.4895 88.4251 80.5738 88.2405 80.6107 88.0454C80.6476 87.8503 80.6635 87.65 80.6582 87.4549C80.2153 87.1016 79.9938 86.9276 79.5509 86.5796C79.1554 87.1069 78.9234 87.5551 78.8549 87.9189C78.7811 88.2827 78.8918 88.5727 79.1818 88.7942C79.3453 88.9154 79.5193 88.9787 79.6985 88.9682C79.8831 88.9576 80.0255 88.9102 80.1256 88.8311C80.2258 88.752 80.2996 88.6729 80.3629 88.5938H80.3576Z" fill="#231F20"/>
<path d="M83.2999 85.8775C83.0573 86.1675 82.8095 86.3046 82.5564 86.2782C82.3033 86.2518 82.0081 86.1042 81.6706 85.8247C80.0729 84.5171 79.2767 83.858 77.6791 82.5503C77.8689 82.3183 77.9638 82.2076 78.1536 81.9756C79.7777 83.3254 80.5897 84.0003 82.2137 85.3502C82.3771 85.482 82.5142 85.5558 82.625 85.5664C82.7357 85.5769 82.8359 85.5295 82.9255 85.424C82.9941 85.3449 83.0573 85.2025 83.1153 84.9916C83.3263 85.0813 83.4264 85.1287 83.6373 85.2184C83.6163 85.3133 83.5793 85.4187 83.5266 85.5347C83.4739 85.6507 83.4001 85.7667 83.3052 85.8827L83.2999 85.8775Z" fill="#231F20"/>
<path d="M85.3985 83.4629C84.9661 83.9533 84.4652 84.2117 83.901 84.238C83.3368 84.2644 82.7515 84.0324 82.1557 83.5209C81.7602 83.1835 81.4755 82.8091 81.3226 82.4136C81.1644 82.0129 81.138 81.6385 81.2329 81.3063C81.3279 80.9742 81.4808 80.6894 81.6917 80.4469C82.0133 80.0831 82.3666 79.8669 82.7462 79.7983C83.1364 79.7245 83.5055 79.7772 83.8535 79.9407C84.2068 80.1041 84.5179 80.3045 84.771 80.5365C83.8904 81.4962 83.4581 81.9813 82.6092 82.9673C83.0468 83.3417 83.4686 83.542 83.8694 83.5631C84.2754 83.5842 84.6339 83.4155 84.9556 83.0516C85.1506 82.8355 85.2825 82.614 85.3563 82.3925C85.4301 82.1711 85.4776 81.9444 85.4881 81.7176C85.7148 81.8231 85.8308 81.8758 86.0576 81.9865C86.0628 82.1342 86.0312 82.3187 85.9521 82.5296C85.8783 82.73 85.7834 82.9146 85.6885 83.0675C85.5936 83.2204 85.4987 83.3522 85.3932 83.4682L85.3985 83.4629ZM82.2137 82.5349C82.8359 81.8178 83.1522 81.4593 83.785 80.7527C83.5899 80.5787 83.3632 80.4838 83.1101 80.4627C82.8517 80.4469 82.6408 80.4838 82.4721 80.5734C82.3033 80.6631 82.1926 80.758 82.1293 80.8318C81.9448 81.0533 81.8288 81.3116 81.8182 81.5964C81.813 81.8811 81.9448 82.1922 82.2137 82.5296V82.5349Z" fill="#231F20"/>
<path d="M283.097 159.724C283.118 159.418 283.182 159.107 283.292 158.807C283.398 158.522 283.508 158.306 283.603 158.174C283.698 158.042 283.772 157.958 283.825 157.921C284.078 158.053 284.204 158.121 284.458 158.258C284.294 158.427 284.146 158.638 284.004 158.896C283.862 159.155 283.783 159.45 283.756 159.777C283.735 160.041 283.756 160.267 283.835 160.452C283.914 160.636 284.02 160.789 284.152 160.911C284.284 161.032 284.431 161.116 284.589 161.169C284.748 161.222 284.9 161.248 285.038 161.259C285.486 161.29 285.871 161.19 286.155 160.921C286.445 160.657 286.614 160.225 286.651 159.64C286.667 159.408 286.667 159.207 286.656 159.049C286.646 158.886 286.63 158.749 286.609 158.633C287.801 158.701 288.396 158.738 289.593 158.807C289.514 160.157 289.461 160.831 289.335 162.181C289.071 162.155 288.939 162.144 288.681 162.118C288.781 161.074 288.823 160.547 288.892 159.497C288.238 159.455 287.911 159.434 287.252 159.387C287.257 159.482 287.263 159.571 287.263 159.65C287.263 159.729 287.263 159.803 287.257 159.872C287.205 160.605 286.978 161.164 286.583 161.538C286.187 161.912 285.66 162.065 285.011 162.002C284.484 161.949 284.067 161.786 283.762 161.517C283.456 161.253 283.261 160.958 283.182 160.631C283.108 160.32 283.076 160.014 283.102 159.714L283.097 159.724Z" fill="#231F20"/>
<path d="M282.554 164.875C282.607 164.501 282.739 164.19 282.96 163.942C283.182 163.694 283.456 163.499 283.783 163.352C284.11 163.204 284.473 163.109 284.874 163.067C285.275 163.019 285.676 163.019 286.082 163.067C286.751 163.141 287.331 163.309 287.811 163.573C288.317 163.847 288.665 164.179 288.855 164.559C289.045 164.939 289.108 165.339 289.055 165.751C288.982 166.31 288.718 166.742 288.296 167.048C287.869 167.354 287.389 167.522 286.873 167.575C286.387 167.623 285.918 167.617 285.486 167.549C284.842 167.449 284.273 167.248 283.772 166.958C283.282 166.673 282.944 166.347 282.76 165.983C282.575 165.619 282.507 165.255 282.559 164.886L282.554 164.875ZM283.229 164.96C283.187 165.292 283.298 165.593 283.556 165.861C283.804 166.115 284.136 166.32 284.547 166.463C284.937 166.6 285.296 166.695 285.618 166.742C286.097 166.816 286.561 166.816 287.004 166.742C287.437 166.673 287.769 166.531 287.99 166.325C288.212 166.12 288.338 165.893 288.375 165.64C288.412 165.376 288.365 165.134 288.243 164.928C288.117 164.717 287.943 164.543 287.716 164.396C287.489 164.248 287.226 164.127 286.925 164.037C286.625 163.942 286.319 163.879 286.002 163.842C285.686 163.805 285.37 163.794 285.053 163.816C284.737 163.837 284.447 163.889 284.189 163.974C283.93 164.063 283.709 164.185 283.535 164.343C283.361 164.501 283.255 164.707 283.224 164.955L283.229 164.96Z" fill="#231F20"/>
<path d="M282.148 167.992C282.375 167.85 282.486 167.781 282.712 167.639C284.69 170.328 285.633 171.741 287.395 174.704C287.173 174.841 287.062 174.91 286.841 175.047C285.075 172.089 284.131 170.676 282.148 167.992ZM285.481 169.637C285.517 169.442 285.586 169.263 285.691 169.099C285.797 168.936 285.929 168.804 286.082 168.699C286.235 168.593 286.403 168.514 286.588 168.467C286.772 168.419 286.967 168.414 287.168 168.445C287.458 168.493 287.711 168.619 287.917 168.82C288.133 169.025 288.27 169.257 288.323 169.495C288.375 169.732 288.386 169.959 288.349 170.159C288.296 170.47 288.154 170.734 287.922 170.95C287.806 171.055 287.685 171.135 287.563 171.193C287.442 171.251 287.321 171.298 287.205 171.324C287.089 171.356 286.983 171.367 286.883 171.367C286.788 171.367 286.704 171.356 286.635 171.345C286.335 171.287 286.087 171.14 285.881 170.929C285.681 170.718 285.549 170.502 285.496 170.27C285.444 170.043 285.438 169.832 285.475 169.632L285.481 169.637ZM286.076 169.737C286.05 169.874 286.061 170.001 286.108 170.117C286.155 170.233 286.219 170.333 286.293 170.417C286.372 170.502 286.456 170.576 286.546 170.623C286.635 170.676 286.714 170.707 286.778 170.718C286.909 170.744 287.047 170.744 287.173 170.697C287.3 170.649 287.405 170.586 287.495 170.502C287.584 170.423 287.653 170.338 287.706 170.249C287.758 170.159 287.779 170.091 287.785 170.043C287.806 169.859 287.79 169.653 287.69 169.484C287.595 169.321 287.479 169.21 287.368 169.147C287.252 169.083 287.152 169.062 287.078 169.057C286.915 169.041 286.725 169.047 286.561 169.12C286.393 169.194 286.277 169.294 286.208 169.4C286.14 169.505 286.097 169.616 286.076 169.727V169.737ZM281.294 172.347C281.336 172.157 281.41 171.989 281.521 171.841C281.631 171.693 281.763 171.567 281.921 171.472C282.08 171.377 282.248 171.314 282.433 171.277C282.617 171.245 282.813 171.245 283.013 171.287C283.277 171.34 283.524 171.467 283.741 171.667C283.957 171.867 284.089 172.094 284.136 172.331C284.183 172.569 284.183 172.785 284.136 172.98C284.073 173.275 283.925 173.523 283.683 173.718C283.561 173.813 283.44 173.887 283.324 173.94C283.203 173.992 283.087 174.029 282.971 174.05C282.855 174.072 282.749 174.082 282.649 174.077C282.554 174.072 282.464 174.061 282.391 174.04C282.095 173.966 281.848 173.818 281.652 173.602C281.457 173.391 281.331 173.175 281.289 172.954C281.246 172.732 281.241 172.532 281.289 172.342L281.294 172.347ZM281.884 172.469C281.858 172.585 281.853 172.701 281.884 172.817C281.916 172.927 281.969 173.033 282.043 173.122C282.111 173.212 282.196 173.286 282.285 173.349C282.375 173.412 282.47 173.444 282.554 173.46C282.665 173.481 282.776 173.491 282.892 173.47C283.002 173.455 283.108 173.418 283.203 173.36C283.298 173.302 283.377 173.233 283.451 173.143C283.519 173.054 283.567 172.954 283.593 172.848C283.635 172.664 283.609 172.474 283.519 172.305C283.429 172.147 283.319 172.031 283.208 171.968C283.097 171.904 282.992 171.878 282.923 171.867C282.76 171.846 282.575 171.841 282.407 171.904C282.238 171.968 282.117 172.057 282.043 172.157C281.974 172.258 281.927 172.363 281.9 172.469H281.884Z" fill="#231F20"/>
<path d="M279.575 178.712C281.7 178.659 282.765 178.617 284.906 178.485C283.034 177.847 282.095 177.525 280.218 176.898C280.287 176.655 280.318 176.529 280.387 176.286C282.812 177.072 284.025 177.473 286.44 178.279C286.34 178.633 286.293 178.812 286.192 179.16C283.994 179.276 282.897 179.313 280.709 179.35C282.491 180.636 283.371 181.295 285.117 182.656C285.001 182.998 284.948 183.172 284.827 183.515C282.38 182.803 281.157 182.445 278.71 181.722C278.8 181.459 278.847 181.322 278.937 181.058C280.83 181.596 281.779 181.865 283.672 182.397C281.995 181.069 281.146 180.425 279.433 179.17C279.491 178.986 279.517 178.896 279.575 178.712Z" fill="#231F20"/>
<path d="M277.793 183.969C277.861 183.79 277.951 183.626 278.072 183.484C278.188 183.341 278.325 183.22 278.489 183.125C278.647 183.03 278.826 182.978 279.021 182.957C279.216 182.935 279.427 182.967 279.649 183.046C280.06 183.194 280.339 183.468 280.466 183.874C280.598 184.28 280.619 184.697 280.529 185.113C280.477 185.34 280.429 185.54 280.382 185.714C280.334 185.888 280.287 186.036 280.239 186.162C280.26 186.173 280.271 186.173 280.292 186.184C280.645 186.321 280.93 186.347 281.146 186.252C281.357 186.157 281.521 185.967 281.626 185.688C281.784 185.266 281.79 184.802 281.626 184.301C281.858 184.285 281.974 184.275 282.211 184.254C282.275 184.459 282.312 184.702 282.327 184.981C282.343 185.261 282.285 185.582 282.148 185.941C281.964 186.421 281.7 186.748 281.352 186.922C281.004 187.09 280.545 187.064 279.981 186.837C278.879 186.4 278.325 186.178 277.223 185.735C277.318 185.498 277.366 185.377 277.461 185.134C277.608 185.182 277.687 185.203 277.835 185.25C277.745 185.05 277.693 184.839 277.682 184.623C277.671 184.407 277.708 184.185 277.793 183.964V183.969ZM278.325 184.259C278.251 184.459 278.225 184.66 278.246 184.86C278.267 185.06 278.309 185.25 278.378 185.44C278.905 185.646 279.169 185.746 279.696 185.952C279.918 185.329 280.007 184.828 279.97 184.459C279.933 184.09 279.738 183.842 279.401 183.721C279.211 183.653 279.027 183.647 278.858 183.711C278.684 183.774 278.563 183.863 278.494 183.969C278.425 184.074 278.373 184.175 278.336 184.264L278.325 184.259Z" fill="#231F20"/>
<path d="M276.311 187.717C276.459 187.369 276.659 187.169 276.907 187.121C277.155 187.074 277.482 187.132 277.888 187.301C279.796 188.092 280.751 188.487 282.66 189.278C282.544 189.557 282.486 189.695 282.37 189.974C280.424 189.151 279.454 188.735 277.513 187.912C277.318 187.828 277.171 187.802 277.06 187.823C276.949 187.844 276.87 187.918 276.812 188.044C276.77 188.139 276.754 188.297 276.754 188.513C276.527 188.487 276.417 188.471 276.19 188.445C276.185 188.35 276.19 188.239 276.206 188.107C276.221 187.981 276.264 187.849 276.322 187.712L276.311 187.717Z" fill="#231F20"/>
<path d="M274.982 190.623C275.262 190.032 275.663 189.642 276.2 189.452C276.733 189.263 277.36 189.326 278.078 189.642C278.552 189.853 278.932 190.127 279.195 190.47C279.459 190.813 279.591 191.166 279.591 191.514C279.591 191.862 279.528 192.184 279.385 192.479C279.18 192.922 278.9 193.233 278.552 193.407C278.199 193.586 277.824 193.644 277.445 193.581C277.055 193.523 276.707 193.418 276.401 193.265C276.981 192.094 277.265 191.504 277.803 190.312C277.276 190.075 276.817 190.006 276.422 190.101C276.026 190.196 275.731 190.46 275.52 190.902C275.394 191.166 275.33 191.414 275.32 191.651C275.309 191.889 275.33 192.115 275.383 192.337C275.135 192.3 275.009 192.279 274.761 192.237C274.713 192.099 274.698 191.91 274.713 191.683C274.729 191.467 274.771 191.266 274.819 191.092C274.866 190.918 274.924 190.765 274.988 190.623H274.982ZM278.299 190.612C277.903 191.483 277.703 191.915 277.281 192.78C277.519 192.896 277.761 192.922 278.014 192.869C278.267 192.811 278.462 192.716 278.6 192.579C278.737 192.442 278.821 192.321 278.858 192.231C278.974 191.962 279.016 191.683 278.942 191.403C278.868 191.129 278.658 190.866 278.299 190.612Z" fill="#231F20"/>
<path d="M250.965 147.919C250.986 147.613 251.049 147.302 251.16 147.001C251.265 146.716 251.376 146.5 251.471 146.368C251.566 146.237 251.64 146.152 251.692 146.115C251.945 146.247 252.072 146.316 252.325 146.453C252.162 146.621 252.014 146.832 251.872 147.091C251.729 147.349 251.65 147.644 251.624 147.971C251.603 148.235 251.624 148.462 251.703 148.646C251.782 148.831 251.887 148.984 252.019 149.105C252.151 149.226 252.299 149.311 252.457 149.363C252.615 149.416 252.768 149.442 252.905 149.453C253.353 149.485 253.738 149.384 254.023 149.115C254.313 148.852 254.482 148.419 254.518 147.834C254.534 147.602 254.534 147.402 254.524 147.244C254.513 147.08 254.497 146.943 254.476 146.827C255.668 146.896 256.264 146.933 257.461 147.001C257.382 148.351 257.329 149.026 257.202 150.376C256.939 150.349 256.807 150.339 256.549 150.312C256.649 149.268 256.691 148.741 256.759 147.692C256.106 147.65 255.779 147.629 255.12 147.581C255.125 147.676 255.13 147.766 255.13 147.845C255.13 147.924 255.13 147.998 255.125 148.066C255.072 148.799 254.845 149.358 254.45 149.732C254.054 150.107 253.527 150.26 252.879 150.196C252.351 150.144 251.935 149.98 251.629 149.711C251.323 149.448 251.128 149.152 251.049 148.825C250.975 148.514 250.944 148.209 250.97 147.908L250.965 147.919Z" fill="#231F20"/>
<path d="M250.422 153.065C250.474 152.691 250.606 152.379 250.828 152.132C251.049 151.884 251.323 151.689 251.65 151.541C251.977 151.393 252.341 151.298 252.742 151.256C253.142 151.209 253.543 151.209 253.949 151.256C254.619 151.33 255.199 151.499 255.679 151.762C256.185 152.037 256.533 152.369 256.723 152.749C256.912 153.128 256.976 153.529 256.923 153.94C256.849 154.499 256.585 154.931 256.164 155.237C255.737 155.543 255.257 155.712 254.74 155.765C254.255 155.812 253.786 155.807 253.353 155.738C252.71 155.638 252.14 155.438 251.64 155.148C251.149 154.863 250.812 154.536 250.627 154.172C250.443 153.808 250.374 153.445 250.427 153.075L250.422 153.065ZM251.096 153.149C251.054 153.481 251.165 153.782 251.423 154.051C251.671 154.304 252.003 154.51 252.415 154.652C252.805 154.789 253.163 154.884 253.485 154.931C253.965 155.005 254.429 155.005 254.872 154.931C255.304 154.863 255.636 154.721 255.858 154.515C256.079 154.309 256.206 154.083 256.243 153.829C256.28 153.566 256.232 153.323 256.111 153.118C255.984 152.907 255.81 152.733 255.584 152.585C255.357 152.437 255.093 152.316 254.793 152.227C254.492 152.132 254.186 152.068 253.87 152.031C253.554 151.994 253.237 151.984 252.921 152.005C252.604 152.026 252.314 152.079 252.056 152.163C251.798 152.253 251.576 152.374 251.402 152.532C251.228 152.691 251.123 152.896 251.091 153.144L251.096 153.149Z" fill="#231F20"/>
<path d="M250.016 156.181C250.242 156.039 250.353 155.97 250.58 155.828C252.557 158.517 253.501 159.93 255.262 162.894C255.041 163.031 254.93 163.099 254.708 163.236C252.942 160.278 251.998 158.865 250.016 156.181ZM253.348 157.827C253.385 157.631 253.453 157.452 253.559 157.289C253.664 157.125 253.796 156.993 253.949 156.888C254.102 156.783 254.271 156.703 254.455 156.656C254.64 156.609 254.835 156.603 255.035 156.635C255.325 156.682 255.578 156.809 255.784 157.009C256 157.215 256.137 157.447 256.19 157.684C256.243 157.921 256.253 158.148 256.216 158.349C256.164 158.66 256.021 158.923 255.789 159.139C255.673 159.245 255.552 159.324 255.431 159.382C255.309 159.44 255.188 159.487 255.072 159.514C254.956 159.545 254.851 159.556 254.751 159.556C254.656 159.556 254.571 159.545 254.503 159.535C254.202 159.477 253.954 159.329 253.749 159.118C253.548 158.907 253.417 158.691 253.364 158.459C253.311 158.233 253.306 158.022 253.343 157.821L253.348 157.827ZM253.944 157.927C253.917 158.064 253.928 158.19 253.975 158.306C254.023 158.422 254.086 158.523 254.16 158.607C254.239 158.691 254.323 158.765 254.413 158.813C254.503 158.865 254.582 158.897 254.645 158.907C254.777 158.934 254.914 158.934 255.041 158.886C255.167 158.839 255.273 158.776 255.362 158.691C255.452 158.612 255.52 158.528 255.573 158.438C255.626 158.349 255.647 158.28 255.652 158.233C255.673 158.048 255.657 157.842 255.557 157.674C255.462 157.51 255.346 157.399 255.236 157.336C255.12 157.273 255.019 157.252 254.946 157.247C254.782 157.231 254.592 157.236 254.429 157.31C254.26 157.384 254.144 157.484 254.076 157.589C254.007 157.695 253.965 157.805 253.944 157.916V157.927ZM249.161 160.537C249.204 160.347 249.277 160.178 249.388 160.031C249.499 159.883 249.631 159.756 249.789 159.661C249.947 159.567 250.116 159.503 250.3 159.466C250.485 159.435 250.68 159.435 250.88 159.477C251.144 159.53 251.392 159.656 251.608 159.857C251.824 160.057 251.956 160.284 252.003 160.521C252.051 160.758 252.051 160.974 252.003 161.169C251.94 161.465 251.792 161.713 251.55 161.908C251.429 162.003 251.307 162.076 251.191 162.129C251.07 162.182 250.954 162.219 250.838 162.24C250.722 162.261 250.617 162.271 250.516 162.266C250.422 162.261 250.332 162.25 250.258 162.229C249.963 162.156 249.715 162.008 249.52 161.792C249.325 161.581 249.198 161.365 249.156 161.143C249.114 160.922 249.109 160.721 249.156 160.531L249.161 160.537ZM249.752 160.658C249.726 160.774 249.72 160.89 249.752 161.006C249.784 161.117 249.836 161.222 249.91 161.312C249.979 161.401 250.063 161.475 250.153 161.539C250.242 161.602 250.337 161.633 250.422 161.649C250.532 161.67 250.643 161.681 250.759 161.66C250.87 161.644 250.975 161.607 251.07 161.549C251.165 161.491 251.244 161.423 251.318 161.333C251.386 161.243 251.434 161.143 251.46 161.038C251.502 160.853 251.476 160.663 251.386 160.495C251.297 160.336 251.186 160.22 251.075 160.157C250.965 160.094 250.859 160.067 250.791 160.057C250.627 160.036 250.443 160.031 250.274 160.094C250.105 160.157 249.984 160.247 249.91 160.347C249.842 160.447 249.794 160.553 249.768 160.658H249.752Z" fill="#231F20"/>
<path d="M247.448 166.901C249.573 166.848 250.638 166.806 252.778 166.674C250.907 166.036 249.968 165.715 248.091 165.087C248.159 164.845 248.191 164.718 248.26 164.476C250.685 165.261 251.898 165.662 254.313 166.469C254.213 166.822 254.165 167.001 254.065 167.349C251.866 167.465 250.77 167.502 248.581 167.539C250.363 168.826 251.244 169.485 252.989 170.845C252.873 171.188 252.821 171.362 252.699 171.705C250.253 170.993 249.029 170.634 246.583 169.912C246.673 169.648 246.72 169.511 246.81 169.247C248.703 169.785 249.652 170.054 251.545 170.587C249.868 169.258 249.019 168.615 247.305 167.36C247.363 167.175 247.39 167.086 247.448 166.901Z" fill="#231F20"/>
<path d="M245.665 172.157C245.734 171.978 245.824 171.815 245.945 171.672C246.061 171.53 246.198 171.409 246.361 171.314C246.52 171.219 246.699 171.166 246.894 171.145C247.089 171.124 247.3 171.156 247.521 171.235C247.933 171.382 248.212 171.657 248.339 172.063C248.471 172.469 248.492 172.885 248.402 173.302C248.349 173.528 248.302 173.729 248.254 173.903C248.207 174.077 248.159 174.224 248.112 174.351C248.133 174.361 248.144 174.361 248.165 174.372C248.518 174.509 248.803 174.535 249.019 174.441C249.23 174.346 249.393 174.156 249.499 173.876C249.657 173.455 249.662 172.991 249.499 172.49C249.731 172.474 249.847 172.463 250.084 172.442C250.147 172.648 250.184 172.89 250.2 173.17C250.216 173.449 250.158 173.771 250.021 174.129C249.836 174.609 249.573 174.936 249.225 175.11C248.877 175.279 248.418 175.253 247.854 175.026C246.752 174.588 246.198 174.367 245.096 173.924C245.191 173.687 245.238 173.565 245.333 173.323C245.481 173.37 245.56 173.391 245.708 173.439C245.618 173.238 245.565 173.027 245.555 172.811C245.544 172.595 245.581 172.374 245.665 172.152V172.157ZM246.198 172.447C246.124 172.648 246.098 172.848 246.119 173.049C246.14 173.249 246.182 173.439 246.251 173.629C246.778 173.834 247.042 173.934 247.569 174.14C247.79 173.518 247.88 173.017 247.843 172.648C247.806 172.279 247.611 172.031 247.274 171.91C247.084 171.841 246.899 171.836 246.731 171.899C246.557 171.962 246.435 172.052 246.367 172.157C246.298 172.263 246.245 172.363 246.209 172.453L246.198 172.447Z" fill="#231F20"/>
<path d="M244.179 175.907C244.326 175.559 244.527 175.358 244.774 175.311C245.022 175.263 245.349 175.321 245.755 175.49C247.664 176.281 248.618 176.677 250.527 177.467C250.411 177.747 250.353 177.884 250.237 178.163C248.291 177.341 247.321 176.924 245.381 176.102C245.186 176.017 245.038 175.991 244.927 176.012C244.817 176.033 244.737 176.107 244.679 176.234C244.637 176.329 244.621 176.487 244.621 176.703C244.395 176.677 244.284 176.661 244.057 176.634C244.052 176.539 244.057 176.429 244.073 176.297C244.089 176.17 244.131 176.039 244.189 175.901L244.179 175.907Z" fill="#231F20"/>
<path d="M242.85 178.817C243.129 178.227 243.53 177.837 244.068 177.647C244.6 177.457 245.228 177.52 245.945 177.837C246.419 178.048 246.799 178.322 247.063 178.664C247.326 179.007 247.458 179.36 247.458 179.708C247.458 180.056 247.395 180.378 247.253 180.673C247.047 181.116 246.767 181.427 246.419 181.601C246.066 181.781 245.692 181.839 245.312 181.775C244.922 181.717 244.574 181.612 244.268 181.459C244.848 180.288 245.133 179.698 245.671 178.506C245.143 178.269 244.685 178.2 244.289 178.295C243.894 178.39 243.599 178.654 243.388 179.097C243.261 179.36 243.198 179.608 243.187 179.846C243.177 180.083 243.198 180.31 243.251 180.531C243.003 180.494 242.876 180.473 242.628 180.431C242.581 180.294 242.565 180.104 242.581 179.877C242.597 179.661 242.639 179.461 242.686 179.287C242.734 179.113 242.792 178.96 242.855 178.817H242.85ZM246.166 178.807C245.771 179.677 245.571 180.109 245.149 180.974C245.386 181.09 245.629 181.116 245.882 181.064C246.135 181.006 246.33 180.911 246.467 180.774C246.604 180.636 246.688 180.515 246.725 180.426C246.841 180.157 246.883 179.877 246.81 179.598C246.736 179.324 246.525 179.06 246.166 178.807Z" fill="#231F20"/>
<path d="M219.997 141.127C220.019 140.821 220.082 140.51 220.193 140.209C220.298 139.924 220.409 139.708 220.504 139.576C220.599 139.445 220.672 139.36 220.725 139.323C220.978 139.455 221.105 139.524 221.358 139.661C221.194 139.829 221.047 140.04 220.904 140.299C220.762 140.557 220.683 140.852 220.657 141.179C220.635 141.443 220.657 141.67 220.736 141.854C220.815 142.039 220.92 142.192 221.052 142.313C221.184 142.434 221.331 142.519 221.49 142.571C221.648 142.624 221.801 142.65 221.938 142.661C222.386 142.693 222.771 142.592 223.056 142.323C223.346 142.06 223.514 141.627 223.551 141.042C223.567 140.81 223.567 140.61 223.557 140.452C223.546 140.288 223.53 140.151 223.509 140.035C224.701 140.104 225.297 140.141 226.494 140.209C226.414 141.559 226.362 142.234 226.235 143.584C225.972 143.557 225.84 143.547 225.581 143.52C225.682 142.476 225.724 141.949 225.792 140.9C225.138 140.858 224.812 140.837 224.152 140.789C224.158 140.884 224.163 140.974 224.163 141.053C224.163 141.132 224.163 141.206 224.158 141.274C224.105 142.007 223.878 142.566 223.483 142.94C223.087 143.315 222.56 143.468 221.911 143.404C221.384 143.352 220.968 143.188 220.662 142.919C220.356 142.656 220.161 142.36 220.082 142.033C220.008 141.722 219.976 141.417 220.003 141.116L219.997 141.127Z" fill="#231F20"/>
<path d="M219.454 146.273C219.507 145.899 219.639 145.587 219.86 145.34C220.082 145.092 220.356 144.897 220.683 144.749C221.01 144.601 221.374 144.506 221.774 144.464C222.175 144.417 222.576 144.417 222.982 144.464C223.652 144.538 224.232 144.707 224.711 144.97C225.218 145.245 225.566 145.577 225.755 145.957C225.945 146.336 226.008 146.737 225.956 147.148C225.882 147.707 225.618 148.139 225.196 148.445C224.769 148.751 224.29 148.92 223.773 148.973C223.288 149.02 222.818 149.015 222.386 148.946C221.743 148.846 221.173 148.646 220.672 148.356C220.182 148.071 219.845 147.744 219.66 147.38C219.475 147.016 219.407 146.653 219.46 146.283L219.454 146.273ZM220.129 146.357C220.087 146.689 220.198 146.99 220.456 147.259C220.704 147.512 221.036 147.718 221.447 147.86C221.838 147.997 222.196 148.092 222.518 148.139C222.998 148.213 223.462 148.213 223.905 148.139C224.337 148.071 224.669 147.929 224.891 147.723C225.112 147.517 225.239 147.291 225.276 147.037C225.312 146.774 225.265 146.531 225.144 146.326C225.017 146.115 224.843 145.941 224.616 145.793C224.39 145.645 224.126 145.524 223.826 145.434C223.525 145.34 223.219 145.276 222.903 145.239C222.586 145.202 222.27 145.192 221.954 145.213C221.637 145.234 221.347 145.287 221.089 145.371C220.831 145.461 220.609 145.582 220.435 145.74C220.261 145.898 220.156 146.104 220.124 146.352L220.129 146.357Z" fill="#231F20"/>
<path d="M219.048 149.394C219.275 149.252 219.386 149.183 219.613 149.041C221.59 151.73 222.534 153.143 224.295 156.107C224.073 156.244 223.963 156.312 223.741 156.449C221.975 153.491 221.031 152.078 219.048 149.394ZM222.381 151.039C222.418 150.844 222.486 150.665 222.592 150.502C222.697 150.338 222.829 150.206 222.982 150.101C223.135 149.995 223.304 149.916 223.488 149.869C223.673 149.821 223.868 149.816 224.068 149.848C224.358 149.895 224.611 150.022 224.817 150.222C225.033 150.428 225.17 150.66 225.223 150.897C225.276 151.134 225.286 151.361 225.249 151.561C225.196 151.873 225.054 152.136 224.822 152.352C224.706 152.458 224.585 152.537 224.464 152.595C224.342 152.653 224.221 152.7 224.105 152.727C223.989 152.758 223.884 152.769 223.783 152.769C223.688 152.769 223.604 152.758 223.536 152.748C223.235 152.69 222.987 152.542 222.782 152.331C222.581 152.12 222.449 151.904 222.397 151.672C222.344 151.445 222.339 151.235 222.376 151.034L222.381 151.039ZM222.977 151.14C222.95 151.277 222.961 151.403 223.008 151.519C223.056 151.635 223.119 151.735 223.193 151.82C223.272 151.904 223.356 151.978 223.446 152.025C223.536 152.078 223.615 152.11 223.678 152.12C223.81 152.147 223.947 152.147 224.073 152.099C224.2 152.052 224.305 151.989 224.395 151.904C224.485 151.825 224.553 151.741 224.606 151.651C224.659 151.561 224.68 151.493 224.685 151.445C224.706 151.261 224.69 151.055 224.59 150.886C224.495 150.723 224.379 150.612 224.268 150.549C224.152 150.486 224.052 150.465 223.978 150.459C223.815 150.444 223.625 150.449 223.462 150.523C223.293 150.596 223.177 150.697 223.108 150.802C223.04 150.908 222.998 151.018 222.977 151.129V151.14ZM218.194 153.75C218.236 153.56 218.31 153.391 218.421 153.243C218.532 153.096 218.663 152.969 218.822 152.874C218.98 152.779 219.149 152.716 219.333 152.679C219.518 152.648 219.713 152.648 219.913 152.69C220.177 152.743 220.425 152.869 220.641 153.069C220.857 153.27 220.989 153.497 221.036 153.734C221.084 153.971 221.084 154.187 221.036 154.382C220.973 154.678 220.825 154.925 220.583 155.121C220.462 155.215 220.34 155.289 220.224 155.342C220.103 155.395 219.987 155.432 219.871 155.453C219.755 155.474 219.649 155.484 219.549 155.479C219.454 155.474 219.365 155.463 219.291 155.442C218.996 155.368 218.748 155.221 218.553 155.005C218.358 154.794 218.231 154.577 218.189 154.356C218.147 154.135 218.141 153.934 218.189 153.744L218.194 153.75ZM218.785 153.871C218.758 153.987 218.753 154.103 218.785 154.219C218.816 154.33 218.869 154.435 218.943 154.525C219.011 154.614 219.096 154.688 219.185 154.751C219.275 154.815 219.37 154.846 219.454 154.862C219.565 154.883 219.676 154.894 219.792 154.873C219.903 154.857 220.008 154.82 220.103 154.762C220.198 154.704 220.277 154.635 220.351 154.546C220.419 154.456 220.467 154.356 220.493 154.251C220.535 154.066 220.509 153.876 220.419 153.707C220.33 153.549 220.219 153.433 220.108 153.37C219.997 153.307 219.892 153.28 219.823 153.27C219.66 153.249 219.475 153.243 219.307 153.307C219.138 153.37 219.017 153.46 218.943 153.56C218.874 153.66 218.827 153.765 218.801 153.871H218.785Z" fill="#231F20"/>
<path d="M216.481 160.114C218.606 160.061 219.671 160.019 221.811 159.887C219.94 159.249 219.001 158.928 217.124 158.3C217.192 158.058 217.224 157.931 217.293 157.688C219.718 158.474 220.931 158.875 223.346 159.682C223.246 160.035 223.198 160.214 223.098 160.562C220.899 160.678 219.802 160.715 217.614 160.752C219.396 162.039 220.277 162.698 222.022 164.058C221.906 164.401 221.854 164.575 221.732 164.917C219.286 164.206 218.062 163.847 215.616 163.125C215.705 162.861 215.753 162.724 215.843 162.46C217.736 162.998 218.685 163.267 220.578 163.8C218.901 162.471 218.052 161.828 216.338 160.573C216.396 160.388 216.423 160.299 216.481 160.114Z" fill="#231F20"/>
<path d="M214.698 165.371C214.767 165.192 214.857 165.029 214.978 164.886C215.094 164.744 215.231 164.623 215.394 164.528C215.553 164.433 215.732 164.38 215.927 164.359C216.122 164.338 216.333 164.369 216.554 164.449C216.966 164.596 217.245 164.87 217.372 165.276C217.504 165.682 217.525 166.099 217.435 166.515C217.382 166.742 217.335 166.943 217.287 167.117C217.24 167.291 217.192 167.438 217.145 167.565C217.166 167.575 217.177 167.575 217.198 167.586C217.551 167.723 217.836 167.749 218.052 167.654C218.263 167.56 218.426 167.37 218.532 167.09C218.69 166.668 218.695 166.204 218.532 165.703C218.764 165.688 218.88 165.677 219.117 165.656C219.18 165.862 219.217 166.104 219.233 166.384C219.249 166.663 219.191 166.985 219.054 167.343C218.869 167.823 218.606 168.15 218.258 168.324C217.91 168.493 217.451 168.466 216.887 168.24C215.785 167.802 215.231 167.581 214.129 167.138C214.224 166.9 214.271 166.779 214.366 166.537C214.514 166.584 214.593 166.605 214.741 166.653C214.651 166.452 214.598 166.241 214.588 166.025C214.577 165.809 214.614 165.587 214.698 165.366V165.371ZM215.231 165.661C215.157 165.862 215.131 166.062 215.152 166.262C215.173 166.463 215.215 166.653 215.284 166.842C215.811 167.048 216.075 167.148 216.602 167.354C216.823 166.732 216.913 166.231 216.876 165.862C216.839 165.493 216.644 165.245 216.307 165.123C216.117 165.055 215.932 165.05 215.763 165.113C215.589 165.176 215.468 165.266 215.4 165.371C215.331 165.477 215.278 165.577 215.241 165.667L215.231 165.661Z" fill="#231F20"/>
<path d="M213.211 169.12C213.359 168.772 213.559 168.571 213.807 168.524C214.055 168.476 214.382 168.534 214.788 168.703C216.697 169.494 217.651 169.889 219.56 170.68C219.444 170.96 219.386 171.097 219.27 171.376C217.324 170.554 216.354 170.137 214.414 169.315C214.218 169.23 214.071 169.204 213.96 169.225C213.849 169.246 213.77 169.32 213.712 169.447C213.67 169.541 213.654 169.7 213.654 169.916C213.428 169.889 213.317 169.874 213.09 169.847C213.085 169.752 213.09 169.642 213.106 169.51C213.122 169.383 213.164 169.251 213.222 169.114L213.211 169.12Z" fill="#231F20"/>
<path d="M211.883 172.025C212.162 171.435 212.563 171.045 213.101 170.855C213.633 170.665 214.261 170.728 214.978 171.045C215.452 171.256 215.832 171.53 216.096 171.872C216.359 172.215 216.491 172.568 216.491 172.916C216.491 173.264 216.428 173.586 216.285 173.881C216.08 174.324 215.8 174.635 215.452 174.809C215.099 174.989 214.725 175.047 214.345 174.983C213.955 174.925 213.607 174.82 213.301 174.667C213.881 173.497 214.166 172.906 214.704 171.714C214.176 171.477 213.718 171.408 213.322 171.503C212.927 171.598 212.631 171.862 212.42 172.305C212.294 172.568 212.231 172.816 212.22 173.054C212.21 173.291 212.231 173.518 212.283 173.739C212.036 173.702 211.909 173.681 211.661 173.639C211.614 173.502 211.598 173.312 211.614 173.085C211.63 172.869 211.672 172.669 211.719 172.495C211.767 172.321 211.825 172.168 211.888 172.025H211.883ZM215.199 172.015C214.804 172.885 214.603 173.317 214.182 174.182C214.419 174.298 214.661 174.324 214.915 174.272C215.168 174.214 215.363 174.119 215.5 173.982C215.637 173.844 215.721 173.723 215.758 173.634C215.874 173.365 215.916 173.085 215.843 172.806C215.769 172.532 215.558 172.268 215.199 172.015Z" fill="#231F20"/>
</g>
<defs>
<clipPath id="clip0_1_172">
<rect width="289.751" height="276" fill="white"/>
</clipPath>
</defs>
</svg>
